<svg width="26" height="31" viewBox="0 0 26 31" fill="none" xmlns="http://www.w3.org/2000/svg">
<g clip-path="url(#clip0_17201_25592)">
<path fill-rule="evenodd" clip-rule="evenodd" d="M15.6363 11.0066C16.5815 10.5353 17.7841 9.84149 18.9882 8.89095C19.2421 9.41818 19.2699 9.87825 19.1391 10.2498C19.0464 10.5116 18.8717 10.7393 18.6421 10.9205C18.3933 11.1162 18.0827 11.2588 17.7393 11.3358C17.0878 11.4826 16.3271 11.3969 15.6363 11.0066ZM15.8001 15.8355L17.0513 16.5582C14.4967 17.9901 13.8022 20.6487 12.9772 23.2383C12.1523 20.6487 11.4577 17.9901 8.90316 16.5582L10.1543 15.8355C10.2754 15.7898 10.3788 15.7069 10.4499 15.5988C10.5209 15.4906 10.5559 15.3628 10.5498 15.2335C10.4352 12.8083 11.09 11.7359 11.9733 11.0625C12.2901 10.8213 12.636 10.7001 12.9772 10.7001C13.3184 10.7001 13.6643 10.8213 13.9812 11.0625C14.8645 11.7359 15.5193 12.8083 15.4047 15.2335C15.3986 15.3628 15.4336 15.4906 15.5046 15.5988C15.5757 15.7069 15.6791 15.7898 15.8001 15.8355ZM12.9772 0C14.4234 0.0388287 15.8733 0.31959 17.1316 0.865767C18.0029 1.24448 18.8159 1.74472 19.5521 2.34291C19.8846 2.61296 20.1583 2.87384 20.4599 3.17417C21.2733 3.20229 22.4619 2.29872 23.0137 1.45324C22.064 4.56675 17.7303 8.24353 14.7299 9.65043C14.7287 9.64992 14.7279 9.6492 14.727 9.64858C14.1885 9.23743 13.5829 9.03185 12.9772 9.03185C12.3715 9.03185 11.766 9.23743 11.2275 9.64858C11.2266 9.64909 11.2258 9.65002 11.2245 9.65043C8.22412 8.24353 3.89044 4.56675 2.94073 1.45324C3.49247 2.29872 4.68113 3.20229 5.49447 3.17417C5.79614 2.87394 6.0699 2.61296 6.40226 2.34291C7.13846 1.74472 7.95149 1.24448 8.82282 0.865767C10.0812 0.31959 11.531 0.0388287 12.9772 0ZM10.3181 11.0066C9.37302 10.5353 8.17025 9.84149 6.96625 8.89095C6.71237 9.41818 6.68457 9.87825 6.81526 10.2498C6.90806 10.5116 7.08274 10.7393 7.31231 10.9205C7.56115 11.1162 7.87178 11.2588 8.21516 11.3358C8.8667 11.4826 9.62731 11.3969 10.3181 11.0066Z" fill="white"/>
<path fill-rule="evenodd" clip-rule="evenodd" d="M20.307 7.7262C20.9698 7.05726 21.5539 6.31683 22.0236 5.65613L22.2621 6.10508C23.03 7.64144 23.429 9.17162 23.429 10.8937L23.4274 13.6263L23.4418 15.0429C23.4974 18.5206 24.2499 22.0392 25.9544 25.2592L22.3881 22.3834L19.8646 26.4783L17.2135 23.9827L12.9772 30.8574L8.74085 23.9828L6.08988 26.4784L3.56643 22.3835L-4.57764e-05 25.2593C1.7045 22.0393 2.45698 18.5207 2.5127 15.043L2.52712 13.6264L2.52547 10.8938C2.52547 9.17162 2.92437 7.64144 3.69249 6.10518L3.93093 5.65623C4.40058 6.31694 4.98455 7.05726 5.64753 7.72631L5.44051 8.15631C5.03832 8.99148 4.90515 9.92533 5.21845 10.8134C5.42042 11.3855 5.78904 11.876 6.26425 12.2505C6.72567 12.6142 7.27174 12.8593 7.84346 12.9881C8.21589 13.0719 8.59532 13.1064 8.97227 13.0947C8.88432 13.5933 8.8459 14.1104 8.84343 14.6373L5.47923 16.5804L8.0753 18.0356C8.28279 18.1519 8.48032 18.2852 8.66587 18.4341C10.8062 20.3557 12.093 26.0407 12.9773 28.8175C13.8617 26.0407 15.1484 20.3557 17.2888 18.4341C17.4744 18.2852 17.6719 18.1519 17.8794 18.0356L20.4755 16.5804L17.1112 14.6373C17.1087 14.1104 17.0703 13.5933 16.9823 13.0947C17.3593 13.1064 17.7387 13.0719 18.1111 12.9881C18.6829 12.8593 19.229 12.6142 19.6903 12.2505C20.1655 11.876 20.5342 11.3855 20.736 10.8134C21.0494 9.92533 20.9162 8.99159 20.5141 8.15631L20.3071 7.72631L20.307 7.7262Z" fill="white"/>
</g>
<defs>
<clipPath id="clip0_17201_25592">
<rect width="25.9545" height="30.8982" fill="white"/>
</clipPath>
</defs>
</svg>
