<svg width="30" height="31" viewBox="0 0 30 31" fill="none" xmlns="http://www.w3.org/2000/svg">
<rect y="0.449097" width="30" height="30" rx="8.6944" fill="#8465CB"/>
<path d="M21.2771 6.40234H8.42645V8.90978H4.6651V9.85007H5.29196V10.7904H5.60539V11.7307H6.54568V22.0738H5.91882V22.7007H5.29196V23.3276H4.35167V24.5813H12.3798V23.3276H11.7529V22.7007H11.1261V22.0738H10.6205C10.6205 22.0738 10.3072 17.6858 10.6205 15.8052C10.9337 13.9247 12.8143 12.3575 15.0083 12.3575C17.8292 12.3575 19.3967 14.5515 19.7099 15.8052C20.0232 17.059 19.7099 22.0738 19.7099 22.0738H19.0831V22.7007H18.7696V23.3276H18.1428V24.5813H25.3517V23.3276H24.7248V22.7007H24.098V22.0738H23.4711V11.7307H24.4114V10.7904H24.7248V9.85007H25.0382V8.90978H21.2771V6.40234Z" fill="white"/>
</svg>
