<svg width="39" height="39" viewBox="0 0 39 39" fill="none" xmlns="http://www.w3.org/2000/svg">
<path d="M39 35.3503V3.64974C39 1.63404 37.366 0 35.3503 0L3.64973 0C1.63404 0 0 1.63404 0 3.64974V35.3503C0 37.366 1.63404 39 3.64973 39H35.3503C37.366 39 39 37.366 39 35.3503Z" fill="#CD52D7"/>
<path d="M22.1054 21.9688C25.3639 21.9688 28.0055 18.3668 28.0055 13.9234C28.0055 9.48004 25.3639 5.87799 22.1054 5.87799C18.8469 5.87799 16.2053 9.48004 16.2053 13.9234C16.2053 18.3668 18.8469 21.9688 22.1054 21.9688Z" fill="white"/>
<mask id="mask0_16913_49568" style="mask-type:luminance" maskUnits="userSpaceOnUse" x="16" y="5" width="13" height="17">
<path d="M22.1059 21.9702C25.3644 21.9702 28.0059 18.3682 28.0059 13.9248C28.0059 9.48145 25.3644 5.87939 22.1059 5.87939C18.8474 5.87939 16.2058 9.48145 16.2058 13.9248C16.2058 18.3682 18.8474 21.9702 22.1059 21.9702Z" fill="white"/>
</mask>
<g mask="url(#mask0_16913_49568)">
<path d="M18.7413 18.4512C20.4532 18.4512 21.841 16.4243 21.841 13.9239C21.841 11.4235 20.4532 9.39661 18.7413 9.39661C17.0294 9.39661 15.6416 11.4235 15.6416 13.9239C15.6416 16.4243 17.0294 18.4512 18.7413 18.4512Z" fill="#231F20" stroke="#231F20" stroke-width="0.94025" stroke-miterlimit="10"/>
</g>
<path d="M22.1054 21.9688C25.3639 21.9688 28.0055 18.3668 28.0055 13.9234C28.0055 9.48004 25.3639 5.87799 22.1054 5.87799C18.8469 5.87799 16.2053 9.48004 16.2053 13.9234C16.2053 18.3668 18.8469 21.9688 22.1054 21.9688Z" stroke="#231F20" stroke-width="0.94025" stroke-miterlimit="10"/>
<path d="M16.2036 30.5733C16.2036 30.5733 22.9264 32.9302 26.2392 26.6431" stroke="#231F20" stroke-width="1.09696" stroke-miterlimit="10" stroke-linecap="round"/>
<path d="M12.7673 21.9688C16.0258 21.9688 18.6673 18.3668 18.6673 13.9234C18.6673 9.48004 16.0258 5.87799 12.7673 5.87799C9.50874 5.87799 6.86719 9.48004 6.86719 13.9234C6.86719 18.3668 9.50874 21.9688 12.7673 21.9688Z" fill="white"/>
<mask id="mask1_16913_49568" style="mask-type:luminance" maskUnits="userSpaceOnUse" x="6" y="5" width="13" height="17">
<path d="M12.7675 21.9679C16.026 21.9679 18.6676 18.3658 18.6676 13.9225C18.6676 9.47913 16.026 5.87708 12.7675 5.87708C9.50898 5.87708 6.86743 9.47913 6.86743 13.9225C6.86743 18.3658 9.50898 21.9679 12.7675 21.9679Z" fill="white"/>
</mask>
<g mask="url(#mask1_16913_49568)">
<path d="M9.40511 18.4499C11.117 18.4499 12.5048 16.4229 12.5048 13.9226C12.5048 11.4222 11.117 9.39526 9.40511 9.39526C7.6932 9.39526 6.30542 11.4222 6.30542 13.9226C6.30542 16.4229 7.6932 18.4499 9.40511 18.4499Z" fill="#231F20" stroke="#231F20" stroke-width="0.94025" stroke-miterlimit="10"/>
</g>
<path d="M12.7673 21.9688C16.0258 21.9688 18.6673 18.3668 18.6673 13.9234C18.6673 9.48004 16.0258 5.87799 12.7673 5.87799C9.50874 5.87799 6.86719 9.48004 6.86719 13.9234C6.86719 18.3668 9.50874 21.9688 12.7673 21.9688Z" stroke="#231F20" stroke-width="0.94025" stroke-miterlimit="10"/>
</svg>
