<svg width="35" height="41" viewBox="0 0 35 41" fill="none" xmlns="http://www.w3.org/2000/svg">
<path fill-rule="evenodd" clip-rule="evenodd" d="M7.11252 22.9025C7.19631 22.4218 7.38564 21.9656 7.66689 21.5669C8.13472 20.954 8.54173 20.6639 8.93237 20.5751C9.52651 20.4394 10.0575 20.7575 10.6119 21.0195C11.3276 21.3563 12.0715 21.6183 12.951 21.078L12.7452 20.7435C12.5256 20.8826 12.2756 20.9665 12.0165 20.9881C11.7575 21.0097 11.4971 20.9683 11.2575 20.8674C10.923 20.7505 10.6025 20.5751 10.2797 20.43C9.85724 20.2042 9.37451 20.1166 8.89962 20.1797C8.43179 20.2686 7.9125 20.5844 7.34877 21.3306C7.03346 21.7707 6.82085 22.2758 6.72656 22.8089L7.11252 22.9025Z" fill="#279FF2"/>
<path fill-rule="evenodd" clip-rule="evenodd" d="M11.8679 35.6227C12.0996 35.2968 12.4193 35.0437 12.7896 34.8929C13.5381 34.6192 14.317 34.9958 15.1147 35.4262C15.7096 35.785 16.3359 36.0888 16.986 36.3338C17.3096 36.4578 17.6571 36.5066 18.0024 36.4766C18.3476 36.4466 18.6815 36.3386 18.9789 36.1607L18.7754 35.8239C18.525 35.9714 18.2444 36.0603 17.9548 36.0838C17.6651 36.1073 17.3738 36.0648 17.1029 35.9595C16.4779 35.7206 15.8752 35.4271 15.3018 35.0823C14.3989 34.5935 13.5077 34.2122 12.6562 34.5233C12.2175 34.7002 11.838 34.9979 11.5615 35.3818L11.8679 35.6227Z" fill="#279FF2"/>
<path fill-rule="evenodd" clip-rule="evenodd" d="M27.5752 24.3761C28.1319 24.61 28.3869 25.0779 28.5366 25.6135C28.705 26.196 28.7471 26.8392 28.8641 27.3585C28.974 27.8404 29.1565 28.2193 29.4933 28.3994C29.7918 28.5379 30.1311 28.5604 30.4453 28.4626L30.3541 28.0813C30.1427 28.1495 29.9144 28.1446 29.7061 28.0673C29.6186 28.0193 29.5415 27.9542 29.4796 27.8758C29.4178 27.7975 29.3723 27.7075 29.3459 27.6111C29.2525 27.3241 29.1867 27.0288 29.1494 26.7293C29.0911 26.2107 28.979 25.6996 28.8149 25.2042C28.7267 24.9412 28.5846 24.6995 28.3978 24.4944C28.2109 24.2894 27.9833 24.1257 27.7296 24.0135L27.5752 24.3761Z" fill="#279FF2"/>
<path fill-rule="evenodd" clip-rule="evenodd" d="M27.9585 23.0569C28.6733 22.9542 29.4025 23.0347 30.0777 23.2908L30.197 22.9165C29.4654 22.6414 28.6757 22.5568 27.9023 22.6709L27.9585 23.0569Z" fill="#279FF2"/>
<path fill-rule="evenodd" clip-rule="evenodd" d="M20.9274 3.72158C21.3508 2.8561 21.9941 2.62453 22.7356 2.63388C23.3078 2.66651 23.8761 2.74948 24.4338 2.88183C26.0151 3.19294 27.6361 3.42451 28.6606 1.55788L28.3191 1.36841C27.3998 3.04323 25.9262 2.77189 24.5086 2.49587C23.9277 2.35997 23.336 2.27466 22.7403 2.24091C21.8514 2.24091 21.0818 2.51224 20.5742 3.54848L20.9274 3.72158Z" fill="#279FF2"/>
<path fill-rule="evenodd" clip-rule="evenodd" d="M8.6777 24.2124C9.14553 23.6066 9.76306 23.4405 10.4087 23.3095C11.1315 23.1598 11.8753 23.0498 12.4835 22.5586L12.2355 22.2522C11.6788 22.7037 10.9911 22.7879 10.3291 22.9235C9.59231 23.0756 8.88355 23.2838 8.36426 23.9785L8.6777 24.2124Z" fill="#A14DF6"/>
<path fill-rule="evenodd" clip-rule="evenodd" d="M13.9502 36.3479C15.1338 37.335 16.0086 38.0555 17.6016 37.5058L17.4729 37.1338C16.039 37.6297 15.2671 36.935 14.1981 36.0461L13.9502 36.3479Z" fill="#A14DF6"/>
<path fill-rule="evenodd" clip-rule="evenodd" d="M19.926 3.17187C20.3494 2.14499 21.1307 1.73798 22.0055 1.43857C22.9412 1.12045 24.0008 0.921622 24.8874 0.327481L24.6698 0C23.8114 0.575428 22.7985 0.757882 21.8792 1.06899C20.8991 1.40114 20.036 1.87365 19.5635 3.01983L19.926 3.17187Z" fill="#A14DF6"/>
<path fill-rule="evenodd" clip-rule="evenodd" d="M32.0105 17.8079C31.6128 18.2757 31.2222 18.7248 30.7988 19.1692L31.0842 19.4406C31.5123 18.9891 31.9076 18.5353 32.3099 18.0628L32.0105 17.8079Z" fill="#F56C2C"/>
<path fill-rule="evenodd" clip-rule="evenodd" d="M30.4707 18.2593C31.0999 18.5119 31.6988 19.071 32.2321 19.5084L32.48 19.2067C31.921 18.7388 31.28 18.1611 30.6087 17.8944L30.4707 18.2593Z" fill="#F56C2C"/>
<path fill-rule="evenodd" clip-rule="evenodd" d="M7.00079 12.9285C6.77858 14.0255 6.46747 15.0875 6.21484 16.1728L6.59612 16.2617C6.85109 15.174 7.16453 14.1074 7.38441 13.0057L7.00079 12.9285Z" fill="#F56C2C"/>
<path fill-rule="evenodd" clip-rule="evenodd" d="M5.57324 13.9763C6.46211 14.3623 7.21064 14.9447 8.06442 15.3938L8.24922 15.0453C7.38841 14.5915 6.62585 14.0067 5.72996 13.6161L5.57324 13.9763Z" fill="#F56C2C"/>
<path fill-rule="evenodd" clip-rule="evenodd" d="M6.47852 13.3892C6.64408 14.1511 6.85974 14.9013 7.12412 15.6348L7.48902 15.4898C7.23178 14.7719 7.02082 14.0382 6.85745 13.2933L6.47852 13.3892Z" fill="#F56C2C"/>
<path fill-rule="evenodd" clip-rule="evenodd" d="M6.07428 15.0851L7.94559 14.2196L7.77951 13.8617L5.9082 14.7295L6.07428 15.0851Z" fill="#F56C2C"/>
<path d="M30.7685 4.5824H9.33496V8.65016H30.7685V4.5824Z" fill="#D9DBE5"/>
<path d="M11.2137 4.11184L7.38672 5.13013L9.0179 11.2606L12.8449 10.2423L11.2137 4.11184Z" fill="#919191"/>
<path d="M30.7735 4.57485L19.8086 22.0206L23.2526 24.1852L34.2175 6.73946L30.7735 4.57485Z" fill="#C2C4CF"/>
<path d="M9.33521 4.57741L6.00391 6.91174L17.8286 23.7866L21.1599 21.4523L9.33521 4.57741Z" fill="#C2C4CF"/>
<path d="M20.0882 34.004C23.9948 34.004 27.1618 30.8371 27.1618 26.9305C27.1618 23.0239 23.9948 19.8569 20.0882 19.8569C16.1816 19.8569 13.0146 23.0239 13.0146 26.9305C13.0146 30.8371 16.1816 34.004 20.0882 34.004Z" fill="black"/>
<path d="M18.9437 34.004C22.8503 34.004 26.0172 30.8371 26.0172 26.9305C26.0172 23.0239 22.8503 19.8569 18.9437 19.8569C15.0371 19.8569 11.8701 23.0239 11.8701 26.9305C11.8701 30.8371 15.0371 34.004 18.9437 34.004Z" fill="#FFBA16"/>
<path d="M24.3146 14.3878L23.8936 15.1171L28.0484 17.5159L28.4694 16.7866L24.3146 14.3878Z" fill="#353848"/>
<path d="M16.4098 14.3605L12.8408 17.167L13.3613 17.8289L16.9303 15.0224L16.4098 14.3605Z" fill="#353848"/>
<path fill-rule="evenodd" clip-rule="evenodd" d="M19.0211 22.2522L20.1158 25.6182H23.655L20.7918 27.7001L21.8842 31.0661L19.0211 28.9866L16.1557 31.0661L17.2504 27.7001L14.3779 25.6206H17.917L19.0211 22.2522Z" fill="#CC9835"/>
<path fill-rule="evenodd" clip-rule="evenodd" d="M22.8155 32.9982C20.4366 33.9923 17.8168 34.1678 16.032 33.2625C14.9817 32.7315 14.1771 31.8403 13.4707 30.9234C12.426 29.5625 11.9422 27.8533 12.1186 26.1469L11.728 26.1024C11.5416 27.9106 12.0537 29.7216 13.1596 31.1643C13.9011 32.121 14.7525 33.052 15.8542 33.6087C17.7255 34.5584 20.4764 34.397 22.9699 33.3561L22.8155 32.9982Z" fill="black"/>
<path fill-rule="evenodd" clip-rule="evenodd" d="M17.1851 27.7539C16.75 28.6557 16.3696 29.5829 16.0459 30.5305L16.4131 30.6685C16.7306 29.7358 17.1048 28.8234 17.5336 27.9364L17.1851 27.7539Z" fill="black"/>
<path fill-rule="evenodd" clip-rule="evenodd" d="M19.0869 29.0755C19.8354 29.7071 20.6261 30.2661 21.391 30.8696L21.6249 30.5609C20.8623 29.9621 20.0764 29.403 19.3302 28.7761L19.0869 29.0755Z" fill="black"/>
<path fill-rule="evenodd" clip-rule="evenodd" d="M20.9439 27.6626C21.7275 27.1246 22.5111 26.5726 23.3228 26.0744L23.117 25.7399C22.3006 26.2404 21.5123 26.7972 20.7217 27.3375L20.9439 27.6626Z" fill="black"/>
<path fill-rule="evenodd" clip-rule="evenodd" d="M14.8945 26.0136C15.7027 26.6067 16.4788 27.2423 17.2196 27.9177L17.4933 27.637C16.7435 26.951 15.9572 26.306 15.1378 25.7048L14.8945 26.0136Z" fill="black"/>
<path fill-rule="evenodd" clip-rule="evenodd" d="M18.965 22.2522C18.4972 23.2884 18.3662 24.4393 17.9521 25.4966L18.3171 25.6393C18.7287 24.5867 18.8621 23.4428 19.3252 22.4136L18.965 22.2522Z" fill="black"/>
<path fill-rule="evenodd" clip-rule="evenodd" d="M25.2266 33.8029C25.8137 34.5187 26.3961 35.2415 26.9762 35.9643L27.2827 35.7187C26.7002 34.9935 26.1131 34.2707 25.5283 33.5526L25.2266 33.8029Z" fill="#FFBA16"/>
<path fill-rule="evenodd" clip-rule="evenodd" d="M26.9014 32.7128L27.1096 32.8111L27.2756 32.4532L27.0651 32.3573L26.9014 32.7128Z" fill="#FFBA16"/>
<path fill-rule="evenodd" clip-rule="evenodd" d="M7.72559 3.70048C7.08934 2.95664 6.46245 2.20812 5.85428 1.44556L5.54785 1.6935C6.16538 2.4584 6.79461 3.20927 7.43554 3.95545L7.72559 3.70048Z" fill="#FFBA16"/>
<path fill-rule="evenodd" clip-rule="evenodd" d="M7.39355 1.79881C7.69063 2.18711 7.98536 2.57541 8.28711 2.95669L8.59587 2.72277C8.29412 2.34149 8.00173 1.95788 7.707 1.56958L7.39355 1.79881Z" fill="#FFBA16"/>
<path fill-rule="evenodd" clip-rule="evenodd" d="M32.6396 13.0828C33.3765 13.1249 34.1133 13.181 34.8501 13.167V12.774C34.1227 12.788 33.3952 12.7319 32.6677 12.6921L32.6396 13.0828Z" fill="#FFBA16"/>
<path fill-rule="evenodd" clip-rule="evenodd" d="M33.0908 12.4933C33.6101 12.4746 33.575 12.4699 34.1107 12.4652V12.0723C33.5727 12.0723 33.6054 12.0723 33.0791 12.1003L33.0908 12.4933Z" fill="#FFBA16"/>
<path fill-rule="evenodd" clip-rule="evenodd" d="M7.49895 27.4965C8.51414 27.1199 9.5223 26.734 10.5188 26.3106L10.3644 25.948C9.3726 26.369 8.37145 26.755 7.36328 27.1176L7.49895 27.4965Z" fill="#FFBA16"/>
</svg>
