<svg width="349" height="363" viewBox="0 0 349 363" fill="none" xmlns="http://www.w3.org/2000/svg">
<path d="M335.509 239.516C314.872 280.16 277.301 311.901 229.558 323.603C142.616 344.91 54.8635 291.698 33.5556 204.756C19.1772 146.089 38.7269 87.0455 79.6884 48.3106C79.3714 64.9716 81.1906 81.9469 85.3432 98.8906C111.182 204.319 217.594 268.845 323.03 243.005C327.255 241.969 331.418 240.808 335.509 239.516Z" fill="#79B7E4"/>
<path d="M126.769 233.874C137.648 227.788 139.741 210.83 131.443 195.996C123.146 181.161 107.6 174.069 96.7208 180.154C85.8416 186.24 83.7489 203.198 92.0465 218.032C100.344 232.867 115.89 239.959 126.769 233.874Z" fill="white"/>
<mask id="mask0_16913_49642" style="mask-type:luminance" maskUnits="userSpaceOnUse" x="86" y="177" width="51" height="60">
<path d="M126.77 233.873C137.649 227.788 139.742 210.829 131.444 195.995C123.146 181.161 107.601 174.069 96.7214 180.154C85.8422 186.239 83.7495 203.198 92.0471 218.032C100.345 232.866 115.891 239.959 126.77 233.873Z" fill="white"/>
</mask>
<g mask="url(#mask0_16913_49642)">
<path d="M108.973 228.418C114.687 225.222 115.533 215.862 110.863 207.512C106.192 199.162 97.7733 194.984 92.0588 198.18C86.3443 201.377 85.4981 210.737 90.1687 219.087C94.8393 227.437 103.258 231.615 108.973 228.418Z" fill="#231F20" stroke="#231F20" stroke-width="4.5628" stroke-miterlimit="10"/>
</g>
<path d="M126.769 233.874C137.648 227.788 139.741 210.83 131.443 195.996C123.146 181.161 107.6 174.069 96.7208 180.154C85.8416 186.24 83.7489 203.198 92.0465 218.032C100.344 232.867 115.89 239.959 126.769 233.874Z" stroke="#231F20" stroke-width="4.5628" stroke-miterlimit="10"/>
<path d="M95.5988 251.313C106.478 245.228 108.571 228.27 100.273 213.435C91.9754 198.601 76.4296 191.509 65.5505 197.594C54.6713 203.679 52.5786 220.638 60.8762 235.472C69.1738 250.306 84.7196 257.399 95.5988 251.313Z" fill="white"/>
<mask id="mask1_16913_49642" style="mask-type:luminance" maskUnits="userSpaceOnUse" x="55" y="195" width="51" height="59">
<path d="M95.5984 251.313C106.478 245.227 108.57 228.269 100.273 213.434C91.9751 198.6 76.4292 191.508 65.5501 197.593C54.671 203.679 52.5782 220.637 60.8758 235.471C69.1734 250.306 84.7192 257.398 95.5984 251.313Z" fill="white"/>
</mask>
<g mask="url(#mask1_16913_49642)">
<path d="M77.8005 245.85C83.515 242.654 84.3612 233.294 79.6906 224.944C75.02 216.594 66.6013 212.416 60.8868 215.613C55.1723 218.809 54.3261 228.169 58.9967 236.519C63.6673 244.869 72.0861 249.047 77.8005 245.85Z" fill="#231F20" stroke="#231F20" stroke-width="4.5628" stroke-miterlimit="10"/>
</g>
<path d="M95.5988 251.313C106.478 245.228 108.571 228.27 100.273 213.435C91.9754 198.601 76.4296 191.509 65.5505 197.594C54.6713 203.679 52.5786 220.638 60.8762 235.472C69.1738 250.306 84.7196 257.399 95.5988 251.313Z" stroke="#231F20" stroke-width="4.5628" stroke-miterlimit="10"/>
<path d="M122.436 291.259C122.436 291.259 116.342 250.354 167.998 240.051" stroke="#231F20" stroke-width="5.32327" stroke-miterlimit="10" stroke-linecap="round"/>
</svg>
