<svg width="106" height="143" viewBox="0 0 106 143" fill="none" xmlns="http://www.w3.org/2000/svg">
<path fill-rule="evenodd" clip-rule="evenodd" d="M75.5627 68.2925C84.5606 68.2925 97.05 71.3636 102.416 81.2236C106.802 89.2948 105.24 103.95 103.149 108.336C96.2094 122.916 92.3085 123.756 75.9614 123.756C59.6143 123.756 54.7759 111.515 54.7759 95.3617C54.7759 79.2085 59.2156 68.2925 75.5627 68.2925Z" fill="#3C6CA4"/>
<path fill-rule="evenodd" clip-rule="evenodd" d="M68.7199 72.7536C78.6014 72.8182 95.7137 77.6458 94.0218 97.0749C92.6425 113.023 81.6511 118.918 70.5949 117.937C60.3147 117.021 47.0818 113.077 47.1788 97.0749C47.2757 81.0726 58.8275 72.6997 68.7199 72.7536Z" fill="#D9E5F4"/>
<path fill-rule="evenodd" clip-rule="evenodd" d="M63.7633 73.5188C77.8367 76.6653 88.6665 83.8421 84.7979 101.138C80.9294 118.433 77.9983 114.564 61.2956 120.437C47.664 125.211 30.8966 111.569 34.7329 94.2732C38.5691 76.9778 49.6899 70.3614 63.7633 73.5188Z" fill="#EAAA5B"/>
<path fill-rule="evenodd" clip-rule="evenodd" d="M54.2585 71.536C68.2672 71.4175 74.6143 74.2515 78.3966 86.5576C79.9161 91.5253 76.2953 99.0793 75.8858 102.56C75.4763 106.041 75.3255 113.411 71.1552 117.646C64.9375 123.993 54.2046 125.125 45.2929 125.534C28.7949 126.289 16.6935 112.517 19.8832 95.3616C23.0729 78.2063 39.1291 71.6761 54.2585 71.536Z" fill="#CD8328"/>
<path fill-rule="evenodd" clip-rule="evenodd" d="M27.9975 78.0446L17.0923 9.47725L42.5989 9.11087L62.5883 0.490112L42.696 77.8506L27.9975 78.0446Z" fill="#117D11"/>
<path fill-rule="evenodd" clip-rule="evenodd" d="M43.1375 22.4085L57.9868 20.7705L66.5106 10.9321L78.7628 10.4795L67.1679 29.8762L48.0191 73.3464L37.103 71.1158L43.1375 22.4085Z" fill="#019400"/>
<path fill-rule="evenodd" clip-rule="evenodd" d="M45.7137 17.4083L49.4529 73.5187H36.8882L45.7137 17.4083Z" fill="black"/>
<path fill-rule="evenodd" clip-rule="evenodd" d="M22.0279 71.6223L0.982422 23.8632L15.6808 16.9666L31.3598 18.5723L45.7134 11.7188L44.6358 73.5188L22.0279 71.6223Z" fill="#34B000"/>
<path fill-rule="evenodd" clip-rule="evenodd" d="M34.1938 127.215L32.6528 138.746L44.7973 137.614L41.7369 123.789L34.1938 127.215Z" fill="#018800"/>
<path fill-rule="evenodd" clip-rule="evenodd" d="M29.8726 128.81L39.9158 132.539L38.7196 123.789L32.6528 120.556L29.8726 128.81Z" fill="black"/>
<path fill-rule="evenodd" clip-rule="evenodd" d="M38.1919 123.918L39.7652 142.582L56.1662 137.851L46.4678 123.605L38.1919 123.918Z" fill="#34B000"/>
<path fill-rule="evenodd" clip-rule="evenodd" d="M38.1919 125.071L41.5109 133.099L47.7394 125.071L44.7976 122.043L38.1919 125.071Z" fill="black"/>
<path fill-rule="evenodd" clip-rule="evenodd" d="M55.8968 73.4757C55.8983 73.0785 55.8213 72.685 55.6703 72.3177C55.5193 71.9504 55.2972 71.6165 55.0169 71.3352C54.7366 71.0539 54.4035 70.8306 54.0367 70.6783C53.6699 70.526 53.2767 70.4476 52.8796 70.4476H18.1379C17.3348 70.4476 16.5646 70.7667 15.9968 71.3345C15.4289 71.9024 15.1099 72.6726 15.1099 73.4757V84.9521C15.1099 85.7551 15.4289 86.5253 15.9968 87.0932C16.5646 87.6611 17.3348 87.9801 18.1379 87.9801H52.8796C53.2767 87.9801 53.6699 87.9017 54.0367 87.7494C54.4035 87.5971 54.7366 87.3739 55.0169 87.0925C55.2972 86.8112 55.5193 86.4773 55.6703 86.11C55.8213 85.7427 55.8983 85.3492 55.8968 84.9521V73.4757Z" fill="#E3A151"/>
<path fill-rule="evenodd" clip-rule="evenodd" d="M57.2436 90.1675C57.2408 89.3978 56.933 88.6605 56.3876 88.1172C55.8423 87.5739 55.1039 87.2688 54.3341 87.2688H14.6463C13.8775 87.2688 13.1402 87.5742 12.5966 88.1178C12.053 88.6615 11.7476 89.3987 11.7476 90.1675V101.181C11.7462 101.562 11.8201 101.94 11.9651 102.293C12.1102 102.646 12.3235 102.967 12.5928 103.237C12.8621 103.508 13.1821 103.722 13.5345 103.868C13.8869 104.015 14.2647 104.09 14.6463 104.09H54.3341C55.1058 104.09 55.8458 103.784 56.3914 103.238C56.9371 102.692 57.2436 101.952 57.2436 101.181V90.1675Z" fill="#E3A151"/>
<path fill-rule="evenodd" clip-rule="evenodd" d="M53.9783 104.09C53.9783 104.09 55.4439 110.297 53.0839 112.409C50.724 114.521 24.463 119.748 18.0621 117.959C13.9888 116.816 15.1095 104.09 15.1095 104.09H53.9783Z" fill="#E3A151"/>
<path fill-rule="evenodd" clip-rule="evenodd" d="M50.2826 115.534C50.2826 114.925 50.0408 114.342 49.6103 113.911C49.1799 113.481 48.596 113.239 47.9873 113.239L24.1186 116.267C23.5117 116.261 22.9272 116.496 22.493 116.92C22.0588 117.344 21.8103 117.923 21.8018 118.53C21.8018 118.53 23.8492 125.189 24.7651 126.677C25.2824 127.506 26.4354 127.377 27.319 127.452C29.7593 127.811 32.2388 127.811 34.679 127.452C40.067 126.483 46.3817 123.983 48.8171 123.358C49.5822 123.164 50.4981 121.472 50.4981 121.472C50.8968 120.534 50.2826 115.534 50.2826 115.534Z" fill="#E3A151"/>
<path fill-rule="evenodd" clip-rule="evenodd" d="M56.2197 98.3572C57.2973 101.655 64.6573 104.219 70.5841 100.071C69.5065 93.0339 70.7242 85.911 71.5755 79.2191C72.4052 72.7536 71.4569 68.9389 69.2479 66.1587C66.7694 63.0444 59.0646 65.2858 55.8965 65.6845C52.7283 66.0832 53.6335 90.8679 56.2197 98.3572Z" fill="#E3A151"/>
<path fill-rule="evenodd" clip-rule="evenodd" d="M24.2264 127.431C31.0476 127.98 37.5563 128.067 43.7416 125.901C45.8162 125.181 47.7985 124.219 49.6469 123.034C49.6877 123.01 49.7232 122.978 49.7514 122.939C49.7795 122.901 49.7998 122.858 49.8108 122.811C49.8219 122.765 49.8235 122.717 49.8157 122.67C49.808 122.623 49.7908 122.579 49.7654 122.539C49.7107 122.459 49.6278 122.404 49.5336 122.384C49.4394 122.364 49.3412 122.381 49.2589 122.431C47.455 123.58 45.524 124.517 43.5046 125.222C37.4162 127.377 31.0045 127.258 24.2803 126.72C24.2335 126.715 24.1864 126.72 24.1416 126.734C24.0967 126.748 24.055 126.77 24.019 126.8C23.9829 126.83 23.9532 126.867 23.9314 126.909C23.9097 126.951 23.8964 126.996 23.8924 127.043C23.8863 127.091 23.8904 127.139 23.9043 127.186C23.9182 127.232 23.9417 127.275 23.9732 127.311C24.0047 127.348 24.0435 127.377 24.0871 127.398C24.1307 127.418 24.1782 127.43 24.2264 127.431V127.431Z" fill="black"/>
<path fill-rule="evenodd" clip-rule="evenodd" d="M15.7347 116.525C18.3921 117.087 21.0798 117.494 23.7844 117.743C26.0042 117.937 28.2348 118.023 30.4547 118.023C32.3787 117.98 34.2975 117.808 36.1982 117.506C40.2823 116.946 46.1983 116.224 50.207 113.81C51.6417 113.075 52.8414 111.952 53.67 110.569C54.4986 109.186 54.9229 107.598 54.8946 105.987C54.9037 105.934 54.9012 105.88 54.8873 105.828C54.8733 105.777 54.8482 105.729 54.8139 105.688C54.7795 105.647 54.7366 105.614 54.6882 105.592C54.6397 105.569 54.5869 105.558 54.5335 105.558C54.4801 105.558 54.4273 105.569 54.3789 105.592C54.3305 105.614 54.2876 105.647 54.2532 105.688C54.2188 105.729 54.1938 105.777 54.1798 105.828C54.1659 105.88 54.1634 105.934 54.1725 105.987C54.1725 110.297 51.3815 112.722 47.707 114.219C44.0324 115.717 39.3772 116.321 36.0259 116.773C34.1577 117.075 32.2711 117.248 30.3792 117.291C28.224 117.291 25.9719 117.204 23.7736 117.01C21.0978 116.764 18.4387 116.361 15.8102 115.803C15.7212 115.796 15.6326 115.821 15.561 115.874C15.4893 115.928 15.4396 116.005 15.4211 116.093C15.4025 116.18 15.4165 116.271 15.4604 116.349C15.5043 116.426 15.575 116.485 15.6593 116.515L15.7347 116.525Z" fill="black"/>
<path fill-rule="evenodd" clip-rule="evenodd" d="M15.1528 86.7623C24.2369 89.8119 33.8706 90.1675 43.3104 88.9175C47.7932 88.3141 50.929 87.6244 54.776 85.0921C54.8159 85.0669 54.8505 85.034 54.8776 84.9953C54.9047 84.9566 54.9238 84.9129 54.9338 84.8668C54.9439 84.8207 54.9446 84.773 54.936 84.7265C54.9274 84.6801 54.9096 84.6359 54.8838 84.5964C54.829 84.5172 54.7461 84.4619 54.6519 84.4419C54.5578 84.4218 54.4595 84.4385 54.3773 84.4886C50.6272 86.9563 47.5777 87.6136 43.2134 88.2063C33.8814 89.4563 24.3555 89.1115 15.3791 86.0511C15.3339 86.0362 15.2861 86.0305 15.2386 86.0344C15.1911 86.0383 15.1448 86.0517 15.1026 86.0738C15.0604 86.0959 15.023 86.1263 14.9928 86.1631C14.9625 86.2 14.94 86.2425 14.9265 86.2882C14.9079 86.334 14.8991 86.3832 14.9005 86.4326C14.902 86.482 14.9138 86.5306 14.9351 86.5752C14.9564 86.6198 14.9867 86.6595 15.0242 86.6917C15.0617 86.7239 15.1055 86.748 15.1528 86.7623V86.7623Z" fill="black"/>
<path fill-rule="evenodd" clip-rule="evenodd" d="M11.7581 99.7797C12.103 102.657 13.9133 103.982 16.2194 104.607C17.7391 104.957 19.2935 105.134 20.853 105.135C29.5923 105.372 38.3532 104.597 47.0817 104.23C49.6201 104.293 52.1557 104.025 54.6249 103.433C56.3706 102.872 57.7283 101.859 58.0301 100.125C58.0398 100.079 58.0403 100.032 58.0315 99.9868C58.0226 99.9412 58.0047 99.8979 57.9788 99.8595C57.9528 99.821 57.9194 99.7882 57.8804 99.7629C57.8415 99.7377 57.7979 99.7206 57.7522 99.7126C57.7065 99.7046 57.6596 99.7059 57.6145 99.7165C57.5693 99.727 57.5267 99.7466 57.4893 99.774C57.4519 99.8014 57.4203 99.8361 57.3966 99.8759C57.3728 99.9158 57.3574 99.96 57.3512 100.006C57.0926 101.482 55.8964 102.301 54.4094 102.786C52.0064 103.356 49.5398 103.614 47.0709 103.551C38.364 103.907 29.6247 104.629 20.8962 104.446C19.3873 104.452 17.8828 104.282 16.4134 103.939C15.3793 103.764 14.4317 103.254 13.7169 102.486C13.0021 101.719 12.5599 100.737 12.4586 99.6935C12.4477 99.6038 12.4022 99.522 12.3317 99.4656C12.2611 99.4092 12.1713 99.3827 12.0814 99.3918C12.0341 99.3944 11.9878 99.4067 11.9455 99.4279C11.9031 99.4492 11.8656 99.479 11.8353 99.5154C11.805 99.5518 11.7825 99.594 11.7692 99.6395C11.7559 99.685 11.7521 99.7327 11.7581 99.7797V99.7797Z" fill="black"/>
<path fill-rule="evenodd" clip-rule="evenodd" d="M58.2245 20.8675C56.4141 28.1951 54.1297 35.2749 52.7288 42.6996C52.7203 42.7441 52.7206 42.79 52.7298 42.8344C52.739 42.8788 52.7569 42.921 52.7824 42.9585C52.808 42.996 52.8407 43.0282 52.8786 43.0531C52.9165 43.078 52.959 43.0952 53.0036 43.1037C53.0481 43.1122 53.094 43.1118 53.1384 43.1026C53.1828 43.0934 53.225 43.0755 53.2625 43.05C53.3 43.0244 53.3322 42.9918 53.3571 42.9538C53.382 42.9159 53.3992 42.8735 53.4077 42.8289C54.7978 35.415 57.0822 28.346 58.8926 21.0399C58.9122 20.95 58.8963 20.856 58.8481 20.7776C58.7998 20.6992 58.7231 20.6426 58.634 20.6196C58.5908 20.6084 58.5458 20.6059 58.5016 20.6124C58.4575 20.6188 58.4151 20.6341 58.3769 20.6572C58.3388 20.6803 58.3057 20.7108 58.2795 20.7469C58.2533 20.783 58.2346 20.824 58.2245 20.8675V20.8675Z" fill="black"/>
<path fill-rule="evenodd" clip-rule="evenodd" d="M15.3361 17.6023C18.127 24.8976 20.2283 32.4516 22.7391 39.8547C22.7537 39.898 22.7767 39.9381 22.8069 39.9725C22.837 40.0069 22.8738 40.0349 22.9149 40.055C22.956 40.075 23.0007 40.0867 23.0464 40.0893C23.092 40.0919 23.1378 40.0854 23.1809 40.0702C23.2644 40.0385 23.3329 39.9766 23.3729 39.8968C23.4128 39.8169 23.4212 39.7249 23.3965 39.6392C20.8749 32.2253 18.7628 24.6606 15.9718 17.3545C15.9564 17.3121 15.9325 17.2734 15.9016 17.2405C15.8708 17.2076 15.8336 17.1813 15.7923 17.1632C15.7511 17.1451 15.7065 17.1355 15.6615 17.135C15.6164 17.1346 15.5717 17.1432 15.53 17.1605C15.4877 17.176 15.4489 17.1999 15.416 17.2307C15.3832 17.2616 15.3568 17.2987 15.3387 17.34C15.3206 17.3813 15.311 17.4258 15.3106 17.4709C15.3101 17.516 15.3188 17.5607 15.3361 17.6023V17.6023Z" fill="black"/>
<path fill-rule="evenodd" clip-rule="evenodd" d="M0.303343 25.2101C7.28616 39.6283 14.9048 53.8849 21.2087 68.6156C21.2208 68.6641 21.2433 68.7094 21.2747 68.7484C21.306 68.7873 21.3455 68.819 21.3903 68.8411C21.4351 68.8633 21.4842 68.8755 21.5342 68.8768C21.5842 68.8781 21.6339 68.8686 21.6798 68.8488C21.7257 68.829 21.7667 68.7994 21.8001 68.7622C21.8335 68.7249 21.8583 68.6809 21.873 68.6331C21.8876 68.5853 21.8917 68.5349 21.8849 68.4853C21.8781 68.4358 21.8607 68.3883 21.8337 68.3462C15.5298 53.6047 7.91117 39.3374 0.91758 24.9084C0.874071 24.8289 0.801899 24.7691 0.715794 24.7411C0.629689 24.7131 0.536147 24.7189 0.454222 24.7575C0.414293 24.777 0.378655 24.8042 0.349383 24.8376C0.32011 24.871 0.297791 24.91 0.283743 24.9521C0.269695 24.9943 0.264195 25.0388 0.267563 25.0831C0.270931 25.1274 0.283084 25.1706 0.303343 25.2101V25.2101Z" fill="black"/>
<path fill-rule="evenodd" clip-rule="evenodd" d="M55.4008 138.412C54.7003 138.67 52.7499 139.144 52.696 139.166C49.9158 139.942 47.1356 140.685 44.377 141.547C44.2899 141.575 44.2172 141.635 44.1748 141.716C44.1324 141.797 44.1237 141.891 44.1507 141.978C44.1803 142.064 44.2413 142.135 44.3214 142.177C44.4015 142.219 44.4946 142.229 44.5817 142.205C47.3296 141.343 50.1098 140.599 52.8792 139.823C52.9439 139.823 55.3684 139.198 55.8641 138.961C55.9368 138.93 56.0005 138.881 56.0494 138.819C56.0983 138.757 56.131 138.683 56.1443 138.605C56.1149 138.296 55.9991 138.001 55.8103 137.754C55.4116 137.14 54.7326 136.364 54.5063 136.062C52.8361 133.508 51.0581 131.019 49.28 128.519C49.2263 128.447 49.1468 128.399 49.0583 128.385C48.9698 128.371 48.8792 128.392 48.8059 128.444C48.7692 128.469 48.7381 128.502 48.7143 128.54C48.6906 128.578 48.6747 128.621 48.6677 128.665C48.6607 128.709 48.6626 128.754 48.6734 128.798C48.6841 128.841 48.7036 128.882 48.7305 128.918C50.4977 131.407 52.265 133.886 53.9353 136.461C54.1292 136.752 54.8405 137.539 55.2392 138.153C55.298 138.236 55.352 138.322 55.4008 138.412V138.412Z" fill="black"/>
<path fill-rule="evenodd" clip-rule="evenodd" d="M54.4636 66.8052C53.3566 71.7326 53.1776 76.8231 53.9356 81.8161C54.4205 85.6739 55.0132 89.4671 55.7244 93.3033C56.1339 95.674 56.5326 98.5512 58.0197 100.545C58.6188 101.31 59.3795 101.934 60.2475 102.372C61.1156 102.81 62.0695 103.051 63.0413 103.077C64.9532 103.177 66.8643 102.865 68.6447 102.161C69.3197 101.936 69.9817 101.673 70.6275 101.374C71.0902 101.168 71.4967 100.854 71.8129 100.459C72.4009 99.4466 72.5928 98.2525 72.3517 97.1072C72.1254 95.34 71.4357 93.4219 71.3387 92.0425C71.0047 87.4329 71.0047 82.8051 71.3387 78.1954C71.6189 74.5855 71.9099 70.4152 70.4659 66.9884C70.4282 66.906 70.3596 66.8417 70.2749 66.8094C70.1902 66.7771 70.0963 66.7795 70.0133 66.816C69.9719 66.8323 69.9342 66.857 69.9028 66.8886C69.8714 66.9201 69.8468 66.9578 69.8307 66.9993C69.8145 67.0407 69.807 67.0851 69.8088 67.1296C69.8105 67.1741 69.8215 67.2178 69.8409 67.2578C71.2418 70.5876 70.9185 74.6393 70.6599 78.1415C70.3204 82.7834 70.3204 87.4438 70.6599 92.0856C70.7569 93.4757 71.4465 95.4154 71.6728 97.1934C71.8898 98.1681 71.7401 99.1885 71.2526 100.06C71.0056 100.368 70.6877 100.612 70.3258 100.771C69.6793 101.094 68.9142 101.321 68.3969 101.525C66.711 102.187 64.9042 102.485 63.0952 102.398C62.2209 102.376 61.3623 102.162 60.5801 101.771C59.7979 101.38 59.1114 100.821 58.5693 100.135C57.1468 98.2279 56.7912 95.4585 56.4141 93.1848C55.7567 89.3593 55.1102 85.577 54.6253 81.7299C53.8816 76.8198 54.0533 71.8145 55.1317 66.9669C55.1429 66.9237 55.1454 66.8787 55.139 66.8346C55.1325 66.7904 55.1173 66.748 55.0942 66.7098C55.0711 66.6717 55.0406 66.6385 55.0045 66.6123C54.9683 66.5862 54.9274 66.5675 54.8839 66.5574C54.84 66.5445 54.7939 66.5407 54.7485 66.5464C54.7031 66.552 54.6594 66.5669 54.62 66.5901C54.5806 66.6134 54.5464 66.6445 54.5195 66.6815C54.4926 66.7185 54.4736 66.7606 54.4636 66.8052V66.8052Z" fill="black"/>
<path fill-rule="evenodd" clip-rule="evenodd" d="M48.0627 125.771C59.5822 126.849 71.4466 121.989 75.175 110.308C77.1686 104.036 76.3819 97.4844 77.8474 91.1805C77.8689 91.0876 77.8525 90.99 77.802 90.9092C77.7515 90.8283 77.6709 90.7709 77.578 90.7494C77.4852 90.728 77.3876 90.7443 77.3067 90.7949C77.2259 90.8454 77.1684 90.926 77.147 91.0188C75.6815 97.3012 76.4789 103.831 74.4854 110.081C70.8646 121.429 59.3128 126.138 48.1274 125.049C48.0806 125.045 48.0335 125.05 47.9886 125.064C47.9438 125.077 47.9021 125.1 47.8661 125.13C47.83 125.16 47.8002 125.197 47.7785 125.239C47.7568 125.28 47.7435 125.326 47.7394 125.373C47.7304 125.468 47.7591 125.563 47.8195 125.638C47.88 125.713 47.9673 125.76 48.0627 125.771Z" fill="black"/>
<path fill-rule="evenodd" clip-rule="evenodd" d="M67.0606 122.334C77.2977 125.071 90.9293 125.491 98.3108 116.655C100.876 113.605 102.222 109.758 103.429 106.03C103.46 105.938 103.454 105.838 103.412 105.752C103.369 105.665 103.294 105.598 103.203 105.566C103.11 105.541 103.011 105.552 102.926 105.596C102.84 105.639 102.774 105.714 102.74 105.803C101.565 109.446 100.261 113.217 97.7612 116.181C90.509 124.801 77.1792 124.306 67.2007 121.633C67.1078 121.61 67.0096 121.624 66.9271 121.673C66.8445 121.721 66.7841 121.8 66.7588 121.892C66.7462 121.941 66.7442 121.992 66.7529 122.042C66.7616 122.092 66.781 122.139 66.8095 122.181C66.8381 122.223 66.8753 122.258 66.9186 122.285C66.9619 122.311 67.0103 122.328 67.0606 122.334V122.334Z" fill="black"/>
<path fill-rule="evenodd" clip-rule="evenodd" d="M71.3706 118.767C81.2952 118.638 90.6488 112.819 92.9225 102.894C92.9336 102.848 92.9355 102.8 92.9279 102.754C92.9203 102.707 92.9035 102.662 92.8784 102.622C92.8533 102.582 92.8205 102.547 92.7818 102.52C92.7431 102.492 92.6993 102.473 92.6531 102.463C92.559 102.443 92.4608 102.46 92.3787 102.51C92.2966 102.56 92.2367 102.64 92.2113 102.732C89.9807 112.334 80.9181 117.916 71.3167 118.045C71.2691 118.045 71.2219 118.055 71.1781 118.073C71.1342 118.092 71.0946 118.119 71.0614 118.153C71.0282 118.187 71.0023 118.228 70.985 118.272C70.9678 118.316 70.9597 118.364 70.9611 118.411C70.9622 118.462 70.9741 118.513 70.9958 118.559C71.0175 118.605 71.0486 118.646 71.0872 118.68C71.1257 118.713 71.1708 118.738 71.2196 118.753C71.2685 118.768 71.3199 118.773 71.3706 118.767V118.767Z" fill="black"/>
</svg>
