<svg width="65" height="49" viewBox="0 0 65 49" fill="none" xmlns="http://www.w3.org/2000/svg">
<path fill-rule="evenodd" clip-rule="evenodd" d="M22.4948 47.8124C22.0885 47.1702 21.7777 46.4725 21.5721 45.741C21.0001 44.2232 21.7335 42.6962 23.3574 42.424C24.6999 42.198 26.2453 42.2626 27.6293 42.0134C29.1055 41.7459 30.3973 41.1277 31.117 39.5223L30.5588 39.2686C29.9314 40.6525 28.8011 41.1784 27.5186 41.4091C26.1346 41.6582 24.5938 41.589 23.2559 41.8151C21.2215 42.1611 20.285 44.0525 20.9954 45.967C21.2112 46.7322 21.5326 47.4635 21.9503 48.1399L22.4948 47.8124Z" fill="#279FF2"/>
<path fill-rule="evenodd" clip-rule="evenodd" d="M28.8566 37.3771C28.8439 37.5515 28.785 37.7195 28.6861 37.8638C28.5873 38.0081 28.4518 38.1235 28.2936 38.1982C27.6967 38.5075 27.0504 38.7105 26.3838 38.798L26.4899 39.4069C27.2348 39.3029 27.956 39.0703 28.6213 38.7195C28.8687 38.5914 29.0779 38.4003 29.2278 38.1653C29.3776 37.9304 29.4628 37.6601 29.4747 37.3817L28.8566 37.3771Z" fill="#279FF2"/>
<path fill-rule="evenodd" clip-rule="evenodd" d="M37.2764 7.17396C38.6604 7.92593 39.7167 8.06433 40.5702 7.8798C41.4097 7.64265 42.1647 7.17236 42.7477 6.52349C43.5411 5.74385 44.3162 4.79351 45.4511 4.21685C47.0703 3.37724 48.9064 3.53871 50.6595 3.37263L50.6041 2.76367C48.7588 2.93436 46.8581 2.79596 45.1696 3.68633C43.9748 4.30451 43.1537 5.29175 42.3186 6.11292C41.818 6.68252 41.1649 7.09709 40.4364 7.30775C39.6937 7.46922 38.7895 7.30774 37.5669 6.66188L37.2764 7.17396Z" fill="#279FF2"/>
<path fill-rule="evenodd" clip-rule="evenodd" d="M41.3502 3.76934C43.463 2.36229 46.697 0.964466 49.262 1.64723L49.4188 1.05213C46.697 0.332457 43.2508 1.76257 41.0088 3.25728L41.3502 3.76934Z" fill="#279FF2"/>
<path fill-rule="evenodd" clip-rule="evenodd" d="M1.46321 29.7237C1.55821 29.1742 1.7765 28.6534 2.1017 28.2003C2.42691 27.7473 2.85059 27.3738 3.34085 27.108C4.29118 26.5544 5.43987 26.4252 6.31639 27.2049C6.72922 27.6275 7.03729 28.141 7.21596 28.7042C7.4477 29.3742 7.88525 29.9539 8.46614 30.3604L8.8029 29.8483C8.32479 29.5069 7.96773 29.0221 7.78338 28.4643C7.56499 27.8176 7.2021 27.2291 6.7223 26.7436C5.63818 25.7748 4.21268 25.8901 3.03168 26.5775C2.4584 26.8936 1.96425 27.3355 1.58631 27.8701C1.20837 28.4046 0.956475 29.0179 0.849609 29.6638L1.46321 29.7237Z" fill="#279FF2"/>
<path fill-rule="evenodd" clip-rule="evenodd" d="M58.9166 21.9779C59.5994 21.0553 60.5404 21.0184 61.5231 21.2167C62.6256 21.4428 63.7882 21.9687 64.7524 22.1394L64.8492 21.5304C63.8758 21.3736 62.7271 20.8523 61.6199 20.6078C60.402 20.3587 59.2487 20.4648 58.3906 21.6043L58.9166 21.9779Z" fill="#279FF2"/>
<path fill-rule="evenodd" clip-rule="evenodd" d="M14.8049 37.3724C13.384 39.3239 12.3875 41.4967 11.1143 43.5404L11.6356 43.8633C12.8858 41.8335 13.873 39.6699 15.2847 37.7369L14.8049 37.3724Z" fill="#FFBA16"/>
<path fill-rule="evenodd" clip-rule="evenodd" d="M13.4163 35.8962C12.0646 37.0957 10.7499 38.332 9.36133 39.4946L9.75801 39.9559C11.142 38.7888 12.466 37.5478 13.827 36.3483L13.4163 35.8962Z" fill="#FFBA16"/>
<path fill-rule="evenodd" clip-rule="evenodd" d="M49.0996 42.0411C50.2391 43.3513 51.2125 44.8091 52.2966 46.1377L52.7579 45.7548C51.6646 44.3985 50.6865 42.9499 49.5286 41.6398L49.0996 42.0411Z" fill="#FFBA16"/>
<path fill-rule="evenodd" clip-rule="evenodd" d="M50.5254 41.0953C51.4744 41.8049 52.3505 42.6069 53.1411 43.4896L53.6255 43.1067C52.807 42.1937 51.9015 41.3625 50.9221 40.6248L50.5254 41.0953Z" fill="#FFBA16"/>
<path fill-rule="evenodd" clip-rule="evenodd" d="M22.3981 10.6755C21.683 8.62719 20.6819 6.70345 19.8654 4.67822L19.2979 4.90889C20.1098 6.90644 21.1064 8.82556 21.8214 10.86L22.3981 10.6755Z" fill="#FFBA16"/>
<path fill-rule="evenodd" clip-rule="evenodd" d="M24.341 9.97874C23.9119 8.3641 23.5059 6.74945 23.1369 5.0979L22.5371 5.23169C22.9108 6.8694 23.3168 8.51634 23.7458 10.1402L24.341 9.97874Z" fill="#FFBA16"/>
<path fill-rule="evenodd" clip-rule="evenodd" d="M53.487 14.0339C55.157 12.5438 57.2422 11.7596 59.1198 10.5832L58.7922 10.0619C56.887 11.2567 54.7741 12.0594 53.0811 13.5772L53.487 14.0339Z" fill="#FFBA16"/>
<path fill-rule="evenodd" clip-rule="evenodd" d="M23.293 39.6238C23.9287 39.9478 24.6029 40.1897 25.2997 40.3435L25.415 39.7391C24.7732 39.5983 24.1527 39.3734 23.5697 39.0702L23.293 39.6238Z" fill="#A14DF6"/>
<path fill-rule="evenodd" clip-rule="evenodd" d="M58.1 19.5422C59.0349 18.7954 60.126 18.2687 61.2924 18.0014L61.154 17.4062C59.9002 17.6913 58.7268 18.2559 57.7217 19.0578L58.1 19.5422Z" fill="#A14DF6"/>
<path fill-rule="evenodd" clip-rule="evenodd" d="M37.8018 4.89957C38.5924 5.50639 39.5053 5.9345 40.4775 6.15439L40.602 5.55465C39.712 5.34865 38.8765 4.95376 38.1524 4.39673L37.8018 4.89957Z" fill="#A14DF6"/>
<path fill-rule="evenodd" clip-rule="evenodd" d="M9.47157 28.6488C8.79961 27.8597 8.32519 26.9219 8.08758 25.9131L7.49707 26.0792C7.75323 27.1738 8.26549 28.192 8.99177 29.0501L9.47157 28.6488Z" fill="#A14DF6"/>
<path fill-rule="evenodd" clip-rule="evenodd" d="M5.24188 16.3129C4.9374 17.5446 4.73447 18.8133 4.48535 20.0588L5.08972 20.1742C5.32961 18.9424 5.55099 17.683 5.83701 16.4605L5.24188 16.3129Z" fill="#F56C2C"/>
<path fill-rule="evenodd" clip-rule="evenodd" d="M3.09668 17.5677C4.58216 17.9183 5.96156 18.6334 7.39629 19.1501L7.60386 18.5688C6.15068 18.0475 4.74826 17.3279 3.23972 16.968L3.09668 17.5677Z" fill="#F56C2C"/>
<path fill-rule="evenodd" clip-rule="evenodd" d="M59.5123 37.9031C58.7834 39.2594 58.0776 40.6388 57.2334 41.9305L57.75 42.2626C58.5989 40.9571 59.3185 39.5639 60.0567 38.1937L59.5123 37.9031Z" fill="#F56C2C"/>
<path fill-rule="evenodd" clip-rule="evenodd" d="M57.1504 39.2639C58.1007 39.776 58.7513 40.6248 59.6416 41.1876L59.9738 40.6663C59.0511 40.0943 58.4053 39.2454 57.4411 38.7241L57.1504 39.2639Z" fill="#F56C2C"/>
<path fill-rule="evenodd" clip-rule="evenodd" d="M58.3496 38.1475C58.488 39.6653 58.6541 41.2061 58.917 42.71L59.526 42.6039C59.2584 41.1185 59.097 39.5915 58.9586 38.0922L58.3496 38.1475Z" fill="#F56C2C"/>
<path fill-rule="evenodd" clip-rule="evenodd" d="M46.1939 15.8054L13.901 13.9601L12.1895 15.8054V34.1017H46.1939L47.9008 32.2333L46.1939 15.8054Z" fill="#787985"/>
<path d="M47.9049 13.9417H13.9004V32.2379H47.9049V13.9417Z" fill="#8EB2FA"/>
<path fill-rule="evenodd" clip-rule="evenodd" d="M46.0648 33.2066L41.1378 38.1336L37.8486 22.1394L38.3884 20.2941L54.3457 23.5926L53.8428 25.4379L48.8374 30.4433L54.9224 34.1339V36.519L52.1544 39.2869L46.0648 33.2066Z" fill="#9297A3"/>
<path fill-rule="evenodd" clip-rule="evenodd" d="M46.5994 31.3568L41.6723 36.2838L38.3877 20.2896L54.3773 23.5788L49.3719 28.5842L54.9079 34.1202L52.1399 36.8881L46.5994 31.3568Z" fill="#4F5768"/>
<path d="M39.7852 18.9563C40.2004 18.255 40.7724 17.6599 41.2521 17.0048C42.1194 15.8146 42.9821 14.629 43.8586 13.448" stroke="#535C6C" stroke-width="0.244504" stroke-linejoin="round"/>
<path d="M36.478 23.1082C35.9613 24.0308 35.2601 24.8889 34.665 25.7792C34.0699 26.6696 33.5347 27.7491 32.9258 28.7087" stroke="#535C6C" stroke-width="0.244504" stroke-linejoin="round"/>
<path d="M36.2887 19.8236C34.6141 18.2458 32.9395 16.645 31.3018 15.0304" stroke="#535C6C" stroke-width="0.244504" stroke-linejoin="round"/>
<path d="M37.9956 18.887C37.728 17.5999 37.5343 16.3036 37.3359 15.0118" stroke="#535C6C" stroke-width="0.244504" stroke-linejoin="round"/>
<path d="M35.7348 21.6874C34.2908 21.8673 32.8192 21.8027 31.3799 22.0288" stroke="#535C6C" stroke-width="0.244504" stroke-linejoin="round"/>
</svg>
