<svg width="37" height="33" viewBox="0 0 37 33" fill="none" xmlns="http://www.w3.org/2000/svg">
<path d="M19.8086 33C28.9213 33 36.3086 25.6127 36.3086 16.5C36.3086 7.3873 28.9213 0 19.8086 0C10.6959 0 3.30859 7.3873 3.30859 16.5C3.30859 25.6127 10.6959 33 19.8086 33Z" fill="black"/>
<path d="M17.1406 33C26.2533 33 33.6406 25.6127 33.6406 16.5C33.6406 7.3873 26.2533 0 17.1406 0C8.02793 0 0.640625 7.3873 0.640625 16.5C0.640625 25.6127 8.02793 33 17.1406 33Z" fill="#FFBA16"/>
<path fill-rule="evenodd" clip-rule="evenodd" d="M15.654 15.6677C15.6266 15.2558 15.6255 14.8426 15.6508 14.4306C15.6795 13.8055 15.7508 13.1817 15.7979 12.5685L15.8465 11.791C15.8497 11.7417 15.8497 11.6922 15.8462 11.6429C15.8462 11.6429 15.8472 11.574 15.8858 11.5815C15.9245 11.589 15.9544 11.556 16.0132 11.5592C16.0721 11.5623 16.3278 11.5705 16.3906 11.5674C16.7109 11.5563 17.0246 11.5149 17.3409 11.5099C17.4503 11.5021 17.5579 11.5105 17.6633 11.5089L17.7002 11.5326C17.7002 11.5326 17.7002 11.5326 17.72 11.5019L17.6831 11.4781C17.5719 11.4677 17.46 11.4654 17.3484 11.4712C17.0382 11.4802 16.7144 11.5238 16.4288 11.5486C16.3858 11.5209 16.1872 11.5321 16.0515 11.5403C15.9157 11.5485 15.9016 11.5569 15.8717 11.5898C15.8418 11.6227 15.8519 11.6205 15.8361 11.6451C15.8311 11.7106 15.8294 11.7763 15.8311 11.8419L15.7825 12.6195C15.7415 13.2367 15.6803 13.8582 15.6516 14.4833C15.629 14.8988 15.6308 15.3153 15.657 15.7305C15.657 15.7305 15.6562 15.6778 15.654 15.6677Z" fill="black"/>
<path fill-rule="evenodd" clip-rule="evenodd" d="M15.6646 16.8662L15.7322 16.9097L15.9641 16.9548L16.1267 16.9725C16.3791 16.9903 16.6325 16.9937 16.8853 16.9829C17.1164 16.9752 17.3475 16.9675 17.5641 16.9418L17.641 16.9304C17.6496 16.9271 17.6568 16.9211 17.6618 16.9134C17.6668 16.9056 17.6692 16.8966 17.6687 16.8874L17.6257 16.8597L17.5365 16.8631C17.2751 16.8774 16.9957 16.9061 16.722 16.9124C16.5205 16.9214 16.3187 16.9192 16.1175 16.9057L15.9651 16.8858L15.7332 16.8408L15.6533 16.7893C15.6435 16.7873 15.6333 16.7878 15.6238 16.7907C15.6142 16.7937 15.6056 16.7991 15.5988 16.8064C15.5767 16.8551 15.5611 16.9065 15.5525 16.9592C15.5334 17.0801 15.5245 17.2023 15.5258 17.3247L15.4779 18.2766C15.4332 19.048 15.36 19.8097 15.34 20.597L15.3193 21.0881C15.3139 21.2585 15.3186 21.4268 15.3171 21.5911L15.3479 21.0978L15.3986 19.9389C15.4325 19.3867 15.4725 18.8385 15.5082 18.2701L15.5601 17.312C15.5613 17.2116 15.5678 17.1113 15.5797 17.0115C15.6019 16.9598 15.6305 16.911 15.6646 16.8662Z" fill="black"/>
<path fill-rule="evenodd" clip-rule="evenodd" d="M14.6618 8.71466C15.0299 13.9353 14.2439 19.1519 14.2448 24.3621C14.2571 24.4694 14.3086 24.5683 14.3893 24.64C14.4701 24.7117 14.5744 24.7511 14.6824 24.7507C14.7904 24.7502 14.8944 24.71 14.9745 24.6376C15.0547 24.5653 15.1053 24.4659 15.1168 24.3585C15.1076 19.1342 15.8972 13.8852 15.5308 8.64826C15.5207 8.53293 15.4661 8.42605 15.3786 8.35021C15.2912 8.27438 15.1776 8.23553 15.062 8.24189C14.9463 8.2517 14.8392 8.30696 14.7642 8.39557C14.6892 8.48419 14.6524 8.59894 14.6618 8.71466Z" fill="black"/>
<path fill-rule="evenodd" clip-rule="evenodd" d="M17.9028 8.41015C17.973 10.8124 17.9378 13.2163 17.9391 15.6175C17.9346 18.5543 18.0536 21.475 17.9274 24.4117C17.9235 24.4695 17.9313 24.5275 17.9504 24.5822C17.9694 24.6369 17.9993 24.6872 18.0382 24.7301C18.0771 24.773 18.1243 24.8077 18.1769 24.832C18.2295 24.8563 18.2864 24.8698 18.3443 24.8716C18.4019 24.8744 18.4595 24.8659 18.5137 24.8465C18.568 24.8271 18.6179 24.7972 18.6607 24.7584C18.7034 24.7197 18.738 24.673 18.7627 24.6208C18.7873 24.5687 18.8014 24.5122 18.8042 24.4546C18.9567 21.5176 18.811 18.571 18.8173 15.6179C18.8138 13.2065 18.8468 10.7925 18.7744 8.38022C18.773 8.32218 18.7601 8.26499 18.7365 8.21193C18.713 8.15886 18.6792 8.11095 18.6372 8.07093C18.5951 8.03091 18.5456 7.99957 18.4914 7.97869C18.4372 7.95782 18.3795 7.94782 18.3214 7.94926C18.2634 7.95071 18.2062 7.96358 18.1532 7.98713C18.1001 8.01067 18.0522 8.04443 18.0121 8.08649C17.9721 8.12855 17.9408 8.17809 17.9199 8.23226C17.899 8.28644 17.889 8.3442 17.8905 8.40224L17.9028 8.41015Z" fill="black"/>
<path fill-rule="evenodd" clip-rule="evenodd" d="M21.7464 11.1384C19.9621 10.6283 18.1126 10.3834 16.257 10.4114C15.1767 10.4016 14.1042 10.596 13.0961 10.9844C11.5104 11.6503 10.4222 13.1236 11.0277 14.8704C11.1348 15.2125 11.3148 15.5272 11.5553 15.793C11.9998 16.2232 12.5736 16.495 13.188 16.5664C13.7312 16.6255 14.2775 16.6522 14.8239 16.6461C16.6505 16.7269 18.9363 16.6078 20.5445 17.6351C21.0159 17.912 21.3616 18.3607 21.5091 18.8871C21.6565 19.4135 21.5942 19.9765 21.3353 20.458C21.0599 20.8001 20.6945 21.0587 20.2803 21.2047C18.4397 22.0368 16.2011 21.8124 14.256 21.6726C13.5373 21.6272 12.8084 21.7056 12.0876 21.65C12.03 21.6454 11.972 21.6523 11.9171 21.6701C11.8621 21.6879 11.8112 21.7164 11.7673 21.7539C11.6785 21.8297 11.6235 21.9376 11.6143 22.0539C11.6051 22.1702 11.6425 22.2855 11.7182 22.3742C11.794 22.463 11.9019 22.518 12.0182 22.5272C12.7452 22.5868 13.4781 22.5022 14.2069 22.5455C16.2979 22.6749 18.684 22.8726 20.6556 21.9857C21.2192 21.7718 21.7131 21.4069 22.083 20.9309C22.4616 20.2566 22.5664 19.4625 22.3757 18.7131C22.1849 17.9636 21.7133 17.3163 21.0583 16.905C19.325 15.7884 16.8802 15.8573 14.9095 15.7707C14.4051 15.7667 13.9013 15.7326 13.401 15.6687C12.9727 15.6268 12.5704 15.4441 12.2571 15.1492C12.1019 14.9795 11.9889 14.7756 11.9273 14.5541C11.4891 13.263 12.3591 12.223 13.5176 11.7343C14.42 11.4002 15.3771 11.2379 16.3393 11.2559C18.1101 11.2355 19.8747 11.47 21.5787 11.9522C21.6358 11.9733 21.6966 11.9822 21.7573 11.9785C21.818 11.9748 21.8773 11.9585 21.9313 11.9306C21.9854 11.9028 22.0331 11.864 22.0713 11.8167C22.1096 11.7695 22.1376 11.7148 22.1536 11.6561C22.1697 11.5974 22.1733 11.5361 22.1643 11.4759C22.1554 11.4158 22.134 11.3582 22.1016 11.3067C22.0691 11.2553 22.0264 11.2111 21.976 11.1771C21.9256 11.143 21.8687 11.1198 21.8088 11.109L21.7464 11.1384Z" fill="black"/>
<path d="M3.36914 3.81946L30.1053 30.5556" stroke="#FA0D0D" stroke-width="2.18254" stroke-linecap="round"/>
</svg>
