<svg width="36" height="45" viewBox="0 0 36 45" fill="none" xmlns="http://www.w3.org/2000/svg">
<path fill-rule="evenodd" clip-rule="evenodd" d="M8.37001 28.3097C8.29864 27.2982 8.5841 24.7601 9.30084 23.9317C9.75695 23.4042 11.0601 22.8302 11.5441 23.6214C12.0282 24.4126 11.8048 25.4179 11.7738 26.2619C11.7241 27.7109 11.7738 30.2303 11.7365 31.6855" fill="#DA9036"/>
<path fill-rule="evenodd" clip-rule="evenodd" d="M15.6156 31.6328L14.2969 33.3517L11.8457 31.9213L14.784 28.7068L16.0872 27.6984C16.3406 27.8264 16.5712 27.9951 16.7698 28.198C17.2476 28.5796 18.0109 29.0605 17.499 29.7121C17.3873 29.8487 17.2663 29.9759 17.1453 30.1031C16.6395 30.6306 16.1058 31.1053 15.6156 31.6328Z" fill="#CD8328"/>
<path fill-rule="evenodd" clip-rule="evenodd" d="M10.7383 29.2964C11.5822 28.4617 13.1802 26.8948 14.0676 26.1067C14.4284 25.7391 14.8479 25.434 15.3087 25.2038C15.9789 24.9214 16.466 25.5141 16.8042 26.0384C16.9283 26.2308 17.1393 26.4511 17.1145 26.6962C17.0577 26.894 16.9605 27.0778 16.829 27.2361C16.5522 27.619 16.2549 27.9867 15.9385 28.3376C14.9208 29.5787 13.3043 31.7879 12.271 32.9918" fill="#DA9036"/>
<path fill-rule="evenodd" clip-rule="evenodd" d="M12.7612 31.8717C11.5604 30.7268 10.5892 29.3895 9.45049 28.1887C8.69961 27.3913 7.27854 25.601 6.2298 25.2286C4.82114 24.7322 3.97718 26.6063 4.36813 27.7109C4.77149 28.862 5.72715 29.799 6.4563 30.7454C7.6726 32.3216 8.80201 34.1181 10.1952 35.5485C10.9305 36.3056 13.5834 36.6438 15.3116 37.0782C17.2074 37.556 21.5606 38.4061 21.5606 38.4061C21.9228 38.8641 22.2594 39.3416 22.5691 39.8365C23.1369 40.8884 23.7574 41.9278 24.2787 43.0045L24.9396 44.3852C24.9396 44.3852 35.6845 44.4938 35.7031 44.438C35.8335 44.0532 35.1415 43.2434 34.9616 42.9765C34.0307 41.5772 32.9758 40.2368 32.0077 38.856C30.6053 36.861 29.5255 34.1398 27.7166 32.5078C25.9077 30.8757 23.5806 31.1115 21.3869 31.3287C19.7672 31.49 18.1352 31.5335 16.5155 31.6824C15.383 31.76 13.8937 31.8251 12.7612 31.8717Z" fill="#E3A151"/>
<path fill-rule="evenodd" clip-rule="evenodd" d="M22.0107 32.5077C20.5679 32.9111 19.5285 33.1593 19.5285 33.1593C19.5285 33.1593 18.0391 31.9182 17.8033 31.6948C16.7453 30.705 16.4598 30.2861 14.9457 31.3008C14.7742 31.4158 14.6284 31.5651 14.5174 31.7392C14.4065 31.9134 14.3328 32.1086 14.301 32.3127C14.2692 32.5167 14.2801 32.7251 14.3328 32.9248C14.3856 33.1244 14.4791 33.311 14.6075 33.4727C15.3709 34.498 16.2554 35.4273 17.2417 36.2404C17.7785 36.6748 18.7621 37.286 18.7621 37.286C18.7621 37.286 20.5741 37.4908 21.446 37.286C22.4916 37.0378 24.1889 36.2063 25.039 35.7936" fill="url(#paint0_linear_17267_2240)"/>
<path fill-rule="evenodd" clip-rule="evenodd" d="M8.50991 13.6087C8.1655 14.7444 8.35477 15.8862 9.2856 16.5595C10.1389 17.18 12.4318 17.2204 15.2554 15.278C18.6932 12.9106 17.8741 10.6239 16.9278 9.71164C16.1241 8.94835 14.4455 9.33 13.9367 9.4417C11.8082 9.91022 9.47798 11.6261 8.50991 13.6087Z" fill="#FFBA16"/>
<path fill-rule="evenodd" clip-rule="evenodd" d="M16.3011 9.17486C17.3157 9.69302 17.5422 10.8131 17.1575 11.806C16.6455 13.1433 15.3486 14.2882 14.0981 14.9088C13.1241 15.4242 12.0782 15.7903 10.9954 15.9948C10.4661 16.1309 9.90988 16.1224 9.38502 15.97C8.80169 15.7497 8.56278 15.2563 8.43246 14.6885C8.39123 14.5079 8.36528 14.3242 8.35489 14.1393V13.9625C8.35489 13.9283 8.37661 13.8445 8.35489 13.8632C8.09426 14.071 8.04461 14.4837 7.97635 14.794C7.84914 15.4797 7.87085 16.2306 8.38281 16.7674C9.1461 17.5679 10.2445 18.1605 11.3739 18.0457C12.0986 17.9342 12.8064 17.7319 13.4807 17.4438C14.8552 16.9639 16.1013 16.1752 17.1234 15.1384C17.651 14.5936 18.072 13.9548 18.3645 13.255C18.7989 12.1442 18.985 10.8317 18.138 9.87609C17.9022 9.60615 16.7045 9.1066 16.3011 9.17486Z" fill="black"/>
<path fill-rule="evenodd" clip-rule="evenodd" d="M22.0876 12.9168C23.5645 12.6965 26.0436 13.8477 27.173 15.9886C28.0511 17.6548 28.1473 20.7948 26.9434 21.8839C24.0144 24.5616 19.3292 21.6977 18.6621 19.3644C18.0601 17.2514 18.3239 15.2408 19.9435 13.7794C20.5538 13.2805 21.3018 12.9796 22.0876 12.9168Z" fill="#FFBA16"/>
<path d="M22.1999 8.3588C23.3669 8.3588 24.3129 7.06549 24.3129 5.47011C24.3129 3.87473 23.3669 2.58142 22.1999 2.58142C21.0329 2.58142 20.0869 3.87473 20.0869 5.47011C20.0869 7.06549 21.0329 8.3588 22.1999 8.3588Z" fill="#FFBA16"/>
<path fill-rule="evenodd" clip-rule="evenodd" d="M22.482 2.23395C22.033 2.45209 21.6402 2.77058 21.334 3.16478C20.4466 4.38107 20.3504 6.73298 21.6442 7.72898C22.0035 7.99544 22.4381 8.14102 22.8853 8.14475C23.046 8.15206 23.2067 8.13105 23.3601 8.08269C23.388 8.08269 23.4997 8.02374 23.5183 8.06097C23.6238 8.27196 23.4625 8.52639 23.3166 8.68153C22.9582 9.04179 22.472 9.24587 21.9638 9.24934C20.7227 9.24934 19.8229 8.31851 19.4816 7.1984C19.3737 6.80563 19.3287 6.39826 19.3482 5.99142C19.3797 5.52173 19.4779 5.05892 19.6398 4.61689C20.0091 3.54953 20.2697 2.52871 22.482 2.23395Z" fill="black"/>
<path fill-rule="evenodd" clip-rule="evenodd" d="M17.9953 20.3634C17.2289 18.5856 16.7542 15.9916 19.9314 13.7359C18.29 15.3618 18.2125 17.3413 18.7896 19.2557C19.6801 22.2189 24.0147 24.0651 27.1671 21.6573C26.6189 22.2473 25.985 22.7514 25.2868 23.1528C22.2275 24.6236 19.1247 22.9791 17.9953 20.3634Z" fill="black"/>
<path fill-rule="evenodd" clip-rule="evenodd" d="M15.2091 11.6043C14.8616 11.4244 14.4861 11.1762 14.0952 10.9838C13.6945 10.7566 13.2402 10.6409 12.7796 10.6487C12.1001 10.7014 11.4764 11.322 11.8488 12.0325C11.992 12.2867 12.2082 12.492 12.4693 12.6221C12.6989 12.7493 12.9503 12.8517 13.1582 12.9758C13.2553 13.031 13.3477 13.0943 13.4343 13.165C13.4985 13.2131 13.5436 13.2823 13.5615 13.3605C13.5734 13.4557 13.5572 13.5523 13.5147 13.6384C13.4722 13.7244 13.4054 13.7961 13.3226 13.8446C13.1314 13.9669 12.9104 14.0345 12.6834 14.04C12.1743 13.9978 11.6848 13.8246 11.2624 13.5374C10.8807 13.3233 10.496 13.1247 10.1298 12.8889C10.1095 12.8757 10.0868 12.8667 10.0629 12.8624C10.0391 12.858 10.0146 12.8585 9.99096 12.8637C9.96729 12.8689 9.94489 12.8787 9.92505 12.8926C9.90522 12.9065 9.88835 12.9243 9.87542 12.9447C9.86215 12.9653 9.85307 12.9883 9.84869 13.0124C9.84432 13.0365 9.84475 13.0612 9.84994 13.0851C9.85512 13.109 9.86497 13.1317 9.87893 13.1518C9.89288 13.1719 9.91067 13.1891 9.93126 13.2023C10.3005 13.4412 10.6945 13.646 11.0793 13.8601C11.5602 14.1807 12.1162 14.371 12.6927 14.4124C12.9923 14.4055 13.2838 14.3141 13.5336 14.1486C13.6754 14.0626 13.7887 13.9366 13.8594 13.7865C13.93 13.6364 13.9548 13.4688 13.9307 13.3047C13.9068 13.171 13.843 13.0477 13.7477 12.951C13.6283 12.8306 13.4938 12.7263 13.3474 12.6407C13.1395 12.5166 12.882 12.4111 12.6493 12.2839C12.4494 12.1901 12.2819 12.0388 12.1684 11.8495C11.9388 11.3996 12.3731 11.0365 12.8044 11.0055C13.196 10.9992 13.5819 11.0989 13.9214 11.2941C14.3124 11.4926 14.6878 11.7409 15.0322 11.9146C15.054 11.9258 15.0778 11.9326 15.1023 11.9346C15.1267 11.9367 15.1513 11.9338 15.1746 11.9263C15.1979 11.9188 15.2196 11.9068 15.2383 11.891C15.257 11.8751 15.2724 11.8557 15.2836 11.834C15.2948 11.8122 15.3016 11.7884 15.3036 11.7639C15.3056 11.7395 15.3028 11.7149 15.2953 11.6916C15.2878 11.6682 15.2758 11.6466 15.2599 11.6279C15.2441 11.6092 15.2247 11.5938 15.2029 11.5826L15.2091 11.6043Z" fill="#FFD350"/>
<path fill-rule="evenodd" clip-rule="evenodd" d="M11.417 14.9057C12.0895 14.3394 12.7124 13.7165 13.2787 13.044C13.8992 12.3521 14.5601 11.6509 15.2303 10.9931C15.2477 10.9758 15.2615 10.9552 15.2709 10.9326C15.2803 10.91 15.2851 10.8857 15.2851 10.8612C15.2851 10.8367 15.2803 10.8124 15.2709 10.7898C15.2615 10.7672 15.2477 10.7466 15.2303 10.7293C15.195 10.695 15.1477 10.6758 15.0985 10.6758C15.0492 10.6758 15.0019 10.695 14.9666 10.7293C14.2902 11.3933 13.6386 12.0977 12.9994 12.7958C12.4474 13.4487 11.8401 14.0529 11.1843 14.6016C11.1452 14.6321 11.1198 14.6768 11.1137 14.726C11.1076 14.7751 11.1213 14.8247 11.1517 14.8638C11.1822 14.9029 11.2269 14.9283 11.2761 14.9344C11.3253 14.9405 11.3748 14.9268 11.4139 14.8964L11.417 14.9057Z" fill="#FFD350"/>
<path fill-rule="evenodd" clip-rule="evenodd" d="M10.5364 14.4961C11.309 13.6925 12.032 12.8423 12.7984 12.0139C13.3258 11.4554 13.9061 10.9341 14.4056 10.3508C14.4309 10.3131 14.4416 10.2674 14.4356 10.2224C14.4296 10.1774 14.4073 10.1361 14.373 10.1063C14.3387 10.0766 14.2946 10.0604 14.2492 10.0609C14.2038 10.0613 14.1601 10.0784 14.1264 10.1088C13.6268 10.689 13.0528 11.2041 12.5284 11.7595C11.7651 12.5693 11.0422 13.4195 10.2696 14.22C10.2522 14.2373 10.2385 14.2578 10.2291 14.2804C10.2197 14.3031 10.2148 14.3273 10.2148 14.3518C10.2148 14.3763 10.2197 14.4006 10.2291 14.4232C10.2385 14.4459 10.2522 14.4664 10.2696 14.4837C10.3034 14.5206 10.3504 14.5427 10.4005 14.545C10.4505 14.5473 10.4994 14.5298 10.5364 14.4961Z" fill="#FFD350"/>
<path fill-rule="evenodd" clip-rule="evenodd" d="M23.7573 14.6637C23.0036 14.8918 22.2874 15.2294 21.6319 15.6659C21.2442 15.9107 20.9063 16.2265 20.6359 16.5967C20.2232 17.1987 20.1736 17.9743 20.7911 18.4584C20.9079 18.5558 21.0444 18.6267 21.1913 18.6663C21.4487 18.7176 21.7159 18.6827 21.9515 18.567C22.1589 18.4632 22.3599 18.3472 22.5534 18.2195C23.2236 17.8285 24.0117 17.2607 24.8216 17.2576C25.0533 17.2481 25.2798 17.3287 25.4534 17.4826C25.627 17.6365 25.7341 17.8517 25.7524 18.0829C25.7328 18.2683 25.6619 18.4445 25.5476 18.5918C25.0822 19.3116 24.232 19.746 23.506 20.1432C23.2392 20.2921 22.9971 20.4876 22.7272 20.6334C22.7056 20.645 22.6865 20.6608 22.671 20.6798C22.6555 20.6988 22.6439 20.7206 22.6368 20.7441C22.6226 20.7916 22.6277 20.8427 22.6512 20.8863C22.6746 20.9299 22.7144 20.9624 22.7619 20.9767C22.8093 20.9909 22.8604 20.9858 22.9041 20.9623C23.1771 20.8165 23.4191 20.6179 23.6891 20.4659C24.4647 20.0315 25.3615 19.5537 25.861 18.7842C26.0129 18.5784 26.1052 18.3347 26.1278 18.0798C26.1079 17.7523 25.9628 17.4449 25.7226 17.2214C25.4823 16.9978 25.1652 16.8753 24.8371 16.8791C23.9621 16.8791 23.1057 17.4655 22.3828 17.8875C22.2019 18.002 22.0144 18.1056 21.8212 18.1977C21.6588 18.2812 21.4733 18.3085 21.2937 18.2753C21.1993 18.2504 21.1122 18.2037 21.0393 18.1388C20.5863 17.7789 20.6576 17.208 20.9586 16.7674C21.2038 16.4408 21.5079 16.163 21.8553 15.9482C22.4824 15.534 23.1658 15.2122 23.8845 14.9926C23.9097 14.987 23.9335 14.9762 23.9543 14.9609C23.9751 14.9456 23.9925 14.9262 24.0053 14.9038C24.0182 14.8815 24.0263 14.8567 24.0291 14.831C24.0319 14.8054 24.0293 14.7794 24.0216 14.7548C24.0138 14.7302 24.001 14.7075 23.984 14.6881C23.967 14.6687 23.9461 14.653 23.9227 14.6421C23.8993 14.6312 23.8739 14.6253 23.8481 14.6247C23.8223 14.6242 23.7967 14.629 23.7728 14.6389L23.7573 14.6637Z" fill="#FFD350"/>
<path fill-rule="evenodd" clip-rule="evenodd" d="M21.7594 14.5737C22.3365 15.4145 22.8764 16.2802 23.4287 17.1366C24.102 18.1853 24.8156 19.1999 25.4455 20.2766C25.4574 20.2981 25.4735 20.317 25.4929 20.3321C25.5122 20.3473 25.5345 20.3584 25.5582 20.3647C25.582 20.3711 25.6067 20.3726 25.6311 20.3692C25.6554 20.3658 25.6788 20.3575 25.6999 20.3449C25.7211 20.3326 25.7397 20.3164 25.7546 20.297C25.7695 20.2776 25.7804 20.2554 25.7868 20.2318C25.7931 20.2082 25.7947 20.1835 25.7916 20.1593C25.7884 20.135 25.7804 20.1116 25.7682 20.0904C25.1476 19.0076 24.4185 17.9898 23.7421 16.9349C23.1867 16.0754 22.6437 15.2067 22.0635 14.3627C22.0496 14.3423 22.0319 14.3249 22.0113 14.3114C21.9907 14.2978 21.9676 14.2885 21.9434 14.2839C21.9192 14.2793 21.8943 14.2795 21.8702 14.2845C21.8461 14.2895 21.8232 14.2992 21.8028 14.313C21.7824 14.3269 21.765 14.3446 21.7515 14.3652C21.738 14.3858 21.7286 14.4089 21.724 14.4331C21.7194 14.4573 21.7196 14.4822 21.7246 14.5063C21.7296 14.5304 21.7393 14.5533 21.7532 14.5737H21.7594Z" fill="#FFD350"/>
<path fill-rule="evenodd" clip-rule="evenodd" d="M20.6731 15.427C22.0042 17.2049 22.9227 19.2465 24.1203 21.1051C24.1494 21.1405 24.1905 21.164 24.2358 21.171C24.281 21.178 24.3273 21.1681 24.3657 21.1431C24.4042 21.1181 24.432 21.0799 24.444 21.0356C24.456 20.9914 24.4512 20.9443 24.4306 20.9034C23.2267 19.0417 22.3021 16.9877 20.9679 15.2036C20.9378 15.1648 20.8938 15.1392 20.8451 15.1322C20.7965 15.1253 20.747 15.1375 20.7073 15.1663C20.6682 15.1964 20.6427 15.2407 20.6363 15.2896C20.6299 15.3385 20.6432 15.3879 20.6731 15.427Z" fill="#FFD350"/>
<path fill-rule="evenodd" clip-rule="evenodd" d="M23.1956 4.18557C22.7581 4.16696 22.153 4.18557 21.7745 4.45552C21.6927 4.5044 21.6247 4.57329 21.5769 4.65571C21.529 4.73812 21.5029 4.83136 21.5011 4.92663C21.4992 5.02191 21.5216 5.11609 21.5662 5.20031C21.6108 5.28453 21.6761 5.35603 21.7559 5.40807C21.9489 5.50031 22.1666 5.52753 22.3764 5.48564C22.5719 5.46082 22.7736 5.40807 22.9474 5.39256C23.1009 5.36469 23.2593 5.39571 23.3911 5.47943C23.4375 5.52215 23.4697 5.578 23.4836 5.63953C23.4975 5.70106 23.4922 5.76536 23.4686 5.82384C23.4202 5.96425 23.3356 6.08945 23.2235 6.18687C23.0296 6.33062 22.7975 6.41375 22.5564 6.42578C22.2973 6.44755 22.0369 6.44859 21.7776 6.42889C21.7651 6.42805 21.7526 6.42973 21.7408 6.43384C21.729 6.43794 21.7181 6.44439 21.7089 6.45279C21.6996 6.46118 21.6921 6.47136 21.6869 6.48272C21.6816 6.49407 21.6787 6.50637 21.6783 6.51887C21.6775 6.54305 21.686 6.56661 21.7023 6.58457C21.7185 6.60252 21.741 6.61346 21.7652 6.61505C22.0877 6.64323 22.4123 6.63594 22.7333 6.59333C22.952 6.56166 23.1586 6.47283 23.3321 6.3358C23.5037 6.19251 23.62 5.99393 23.661 5.7742C23.6733 5.69526 23.6652 5.61448 23.6376 5.53953C23.6099 5.46459 23.5634 5.39797 23.5028 5.34601C23.335 5.22819 23.128 5.18033 22.9256 5.2126C22.7457 5.2126 22.544 5.28086 22.3423 5.30878C22.1731 5.3443 21.997 5.32473 21.8397 5.25293C21.5697 5.104 21.6721 4.76269 21.88 4.61065C22.2244 4.35312 22.7798 4.35933 23.1832 4.37795C23.2079 4.37795 23.2315 4.36814 23.249 4.35068C23.2664 4.33323 23.2762 4.30955 23.2762 4.28486C23.2762 4.26018 23.2664 4.2365 23.249 4.21904C23.2315 4.20159 23.2079 4.19178 23.1832 4.19178L23.1956 4.18557Z" fill="#FFD350"/>
<path fill-rule="evenodd" clip-rule="evenodd" d="M21.9355 4.05522C22.0782 5.0388 22.162 6.03479 22.3668 7.01217C22.369 7.02411 22.3736 7.03548 22.3803 7.04559C22.387 7.05571 22.3957 7.06436 22.4059 7.07103C22.416 7.07769 22.4274 7.08224 22.4393 7.08439C22.4513 7.08654 22.4635 7.08625 22.4754 7.08353C22.4874 7.0813 22.4989 7.07671 22.5091 7.07004C22.5194 7.06337 22.5282 7.05475 22.5351 7.04466C22.542 7.03458 22.5469 7.02323 22.5494 7.01127C22.5519 6.9993 22.5521 6.98696 22.5498 6.97494C22.3451 6.00066 22.2644 5.01087 22.1217 4.02729C22.1178 4.00308 22.1046 3.98135 22.0849 3.96682C22.0651 3.9523 22.0404 3.94615 22.0162 3.94972C22.0039 3.95125 21.9921 3.9552 21.9813 3.96135C21.9706 3.96751 21.9612 3.97573 21.9537 3.98555C21.9462 3.99537 21.9407 4.00659 21.9376 4.01855C21.9345 4.03051 21.9338 4.04298 21.9355 4.05522Z" fill="#FFD350"/>
<path fill-rule="evenodd" clip-rule="evenodd" d="M22.6308 3.94664C22.8356 4.96125 22.8107 6.01619 22.9814 7.04942C22.9855 7.07411 22.9993 7.09615 23.0196 7.1107C23.04 7.12524 23.0653 7.1311 23.09 7.12699C23.1147 7.12288 23.1367 7.10912 23.1513 7.08876C23.1658 7.06839 23.1717 7.04308 23.1676 7.01839C22.9938 5.99447 23.0186 4.93643 22.8138 3.91561C22.8114 3.90359 22.8066 3.89217 22.7998 3.882C22.7929 3.87183 22.7841 3.86311 22.7739 3.85634C22.7636 3.84957 22.7522 3.84488 22.7401 3.84254C22.7281 3.8402 22.7157 3.84025 22.7037 3.84269C22.6917 3.84514 22.6803 3.84993 22.6701 3.85679C22.6599 3.86364 22.6512 3.87244 22.6444 3.88267C22.6377 3.8929 22.633 3.90436 22.6306 3.9164C22.6283 3.92844 22.6283 3.94082 22.6308 3.95284V3.94664Z" fill="#FFD350"/>
<path fill-rule="evenodd" clip-rule="evenodd" d="M31.2475 18.0208H30.9373L28.3682 21.0615H30.4284L30.5432 25.3092H31.26L31.2475 18.0208Z" fill="black"/>
<path fill-rule="evenodd" clip-rule="evenodd" d="M7.88622 3.15234H7.57594L5.49707 5.60665L7.19429 5.59113L7.25945 10.9372H7.9793L7.88622 3.15234Z" fill="black"/>
<path fill-rule="evenodd" clip-rule="evenodd" d="M30.7449 25.3093L30.6332 20.7854H28.8926L31.2476 18.0115L33.646 20.7575L32.0947 20.7016L32.1753 25.2969L30.7449 25.3093Z" fill="#FFF0C3"/>
<path fill-rule="evenodd" clip-rule="evenodd" d="M7.48612 10.9217L7.39614 5.38009H5.98438L7.89258 3.13678L9.83182 5.35837L8.5752 5.31493L8.64036 10.8999L7.48612 10.9217Z" fill="#FFF0C3"/>
<path fill-rule="evenodd" clip-rule="evenodd" d="M22.0103 29.8177C22.1747 28.6231 22.9597 27.956 23.9092 27.4254C24.8586 26.8948 26.0346 26.5225 26.894 25.9609C27.3449 25.653 27.7075 25.2326 27.9459 24.7415C28.191 24.2854 28.3772 23.7858 28.6316 23.308C28.6429 23.2875 28.6462 23.2635 28.6411 23.2407C28.6359 23.2178 28.6226 23.1976 28.6037 23.1839C28.5927 23.178 28.5807 23.1744 28.5683 23.1733C28.5559 23.1721 28.5434 23.1734 28.5316 23.1772C28.5197 23.181 28.5087 23.1871 28.4992 23.1951C28.4898 23.2032 28.482 23.2131 28.4765 23.2242C28.222 23.7021 28.0359 24.2016 27.7908 24.6577C27.5671 25.1214 27.2258 25.5183 26.801 25.8089C25.9477 26.3674 24.8028 26.7397 23.8285 27.2641C22.8542 27.7884 22.0103 28.5331 21.8365 29.7959C21.8338 29.8205 21.8407 29.8452 21.8557 29.8648C21.8707 29.8845 21.8928 29.8976 21.9172 29.9014C21.9403 29.9015 21.9627 29.893 21.9799 29.8775C21.9971 29.862 22.0079 29.8407 22.0103 29.8177Z" fill="#ADDD1C"/>
<path fill-rule="evenodd" clip-rule="evenodd" d="M15.0534 21.6325C15.4423 20.3433 15.3258 18.9543 14.7276 17.7478C14.498 17.3135 14.1319 16.9846 13.8868 16.5657C13.8813 16.5549 13.8736 16.5453 13.8642 16.5376C13.8549 16.53 13.844 16.5243 13.8323 16.5211C13.8206 16.5179 13.8084 16.5172 13.7964 16.519C13.7844 16.5208 13.7729 16.525 13.7627 16.5315C13.7518 16.5373 13.7421 16.5453 13.7344 16.555C13.7267 16.5646 13.7211 16.5758 13.7179 16.5877C13.7147 16.5997 13.714 16.6121 13.7158 16.6244C13.7177 16.6366 13.722 16.6483 13.7285 16.6588C13.9675 17.0776 14.3491 17.4034 14.5632 17.8347C15.1392 18.997 15.2502 20.3353 14.8735 21.5767C14.8661 21.6005 14.8684 21.6264 14.8801 21.6485C14.8917 21.6706 14.9117 21.6872 14.9355 21.6946C14.9594 21.702 14.9852 21.6996 15.0073 21.688C15.0294 21.6763 15.046 21.6564 15.0534 21.6325Z" fill="#1ADBD8"/>
<path fill-rule="evenodd" clip-rule="evenodd" d="M27.3346 2.90413C27.508 3.39442 27.6215 3.90386 27.6728 4.42139C27.675 4.43341 27.6796 4.44487 27.6863 4.45512C27.693 4.46537 27.7016 4.4742 27.7117 4.48112C27.7218 4.48804 27.7331 4.4929 27.7451 4.49542C27.757 4.49795 27.7694 4.4981 27.7814 4.49585C27.7933 4.49398 27.8047 4.48975 27.8149 4.48339C27.8251 4.47704 27.834 4.46869 27.8409 4.45885C27.8479 4.44902 27.8528 4.43789 27.8553 4.42612C27.8579 4.41435 27.8581 4.40219 27.8559 4.39036C27.7958 3.86083 27.674 3.34015 27.4928 2.83897C27.4878 2.82771 27.4806 2.81755 27.4716 2.8091C27.4626 2.80065 27.4521 2.79407 27.4405 2.78974C27.429 2.78541 27.4167 2.78342 27.4044 2.78388C27.392 2.78434 27.3799 2.78724 27.3687 2.79243C27.3507 2.80394 27.3373 2.82151 27.3311 2.84199C27.3248 2.86246 27.3261 2.88449 27.3346 2.90413Z" fill="#FE772A"/>
<path fill-rule="evenodd" clip-rule="evenodd" d="M26.4903 4.4307C27.2629 3.99011 28.0417 3.56813 28.8143 3.11822C28.825 3.11217 28.8343 3.10399 28.8417 3.0942C28.8491 3.08442 28.8544 3.07323 28.8573 3.06131C28.8602 3.0494 28.8606 3.03702 28.8586 3.02493C28.8565 3.01284 28.852 3.0013 28.8454 2.99101C28.8392 2.98041 28.8311 2.97112 28.8214 2.96367C28.8117 2.95621 28.8006 2.95075 28.7888 2.94758C28.777 2.94441 28.7647 2.9436 28.7526 2.94519C28.7404 2.94679 28.7287 2.95076 28.7181 2.95688C27.9518 3.40678 27.1667 3.82876 26.4004 4.26936C26.3894 4.27515 26.3798 4.28312 26.3721 4.29279C26.3644 4.30245 26.3588 4.3136 26.3556 4.32553C26.3524 4.33747 26.3517 4.34994 26.3535 4.36216C26.3554 4.37438 26.3597 4.38609 26.3662 4.39657C26.3717 4.40739 26.3794 4.41694 26.3888 4.42462C26.3981 4.43229 26.409 4.43792 26.4207 4.44113C26.4324 4.44435 26.4446 4.44508 26.4566 4.44328C26.4686 4.44149 26.4801 4.4372 26.4903 4.4307Z" fill="#FE772A"/>
<path fill-rule="evenodd" clip-rule="evenodd" d="M28.058 2.86379C27.7881 3.33852 27.5522 3.82566 27.304 4.30969C27.2981 4.32065 27.2945 4.33269 27.2934 4.34507C27.2922 4.35746 27.2936 4.36996 27.2973 4.38182C27.3011 4.39368 27.3072 4.40466 27.3153 4.41412C27.3233 4.42358 27.3332 4.43133 27.3444 4.4369C27.3663 4.44702 27.3913 4.44848 27.4143 4.441C27.4373 4.43353 27.4566 4.41766 27.4685 4.39657C27.7167 3.91253 27.9494 3.4285 28.2193 2.95688C28.2317 2.93548 28.235 2.91006 28.2286 2.8862C28.2222 2.86234 28.2066 2.84201 28.1852 2.82966C28.1638 2.81732 28.1384 2.81398 28.1145 2.82038C28.0907 2.82678 28.0703 2.8424 28.058 2.86379Z" fill="#FE772A"/>
<path fill-rule="evenodd" clip-rule="evenodd" d="M27.0527 3.36642C27.4302 3.61962 27.8313 3.83575 28.2504 4.0118C28.2716 4.01709 28.2941 4.01473 28.3137 4.00512C28.3334 3.99552 28.3491 3.97929 28.358 3.95928C28.3669 3.93928 28.3684 3.91678 28.3624 3.89574C28.3563 3.8747 28.343 3.85647 28.3249 3.84425C27.9174 3.67445 27.5268 3.46668 27.1582 3.22369C27.1487 3.21616 27.1376 3.21071 27.1259 3.20771C27.1141 3.2047 27.1018 3.20421 27.0898 3.20626C27.0778 3.2083 27.0664 3.21285 27.0562 3.21959C27.0461 3.22634 27.0375 3.23513 27.031 3.24541C27.0193 3.26478 27.015 3.28774 27.019 3.31001C27.023 3.33228 27.035 3.35234 27.0527 3.36642Z" fill="#FE772A"/>
<path fill-rule="evenodd" clip-rule="evenodd" d="M25.104 44.2828C24.2942 42.7934 23.5992 41.2358 22.7118 39.7899C22.5567 39.5417 22.3705 39.1259 22.1471 38.7877C22.0189 38.5636 21.8337 38.3774 21.6103 38.2479C20.5616 37.7483 19.1994 37.7793 18.0638 37.5994C16.3641 37.3033 14.6811 36.918 13.0218 36.4451C12.4943 36.3055 11.7807 36.2404 11.1601 36.048C10.7771 35.9554 10.429 35.7538 10.1579 35.4678C9.05334 34.1522 8.15975 32.6225 7.1048 31.2604C6.26705 30.1806 5.11902 29.0884 4.66601 27.7791C4.47356 27.2116 4.47356 26.5965 4.66601 26.0291C4.74829 25.7599 4.91963 25.5267 5.15191 25.3677C5.3842 25.2087 5.66363 25.1334 5.94436 25.1541C6.13477 25.1567 6.32228 25.2012 6.49355 25.2844C7.07377 25.5947 7.45231 26.1842 7.86809 26.6683C8.60034 27.5184 9.36673 28.3469 10.0555 29.2374C10.0714 29.2546 10.0932 29.2652 10.1166 29.267C10.1399 29.2689 10.1631 29.2619 10.1815 29.2474C10.1999 29.2329 10.2122 29.212 10.2159 29.1889C10.2196 29.1657 10.2144 29.1421 10.2014 29.1226C9.51256 28.2321 8.74307 27.4005 8.00771 26.5473C7.57642 26.0477 7.17926 25.4272 6.57732 25.12C6.38415 25.0243 6.17227 24.9724 5.95677 24.9679C5.63719 24.9462 5.3196 25.0327 5.05508 25.2133C4.79057 25.394 4.59452 25.6584 4.49846 25.9639C4.29348 26.5676 4.29348 27.222 4.49846 27.8256C4.95767 29.1691 6.11191 30.2675 6.96207 31.3628C8.02012 32.7249 8.91682 34.2577 10.0214 35.5764C10.3164 35.8879 10.6942 36.1086 11.1105 36.2124C11.731 36.4048 12.4602 36.4731 12.9877 36.6127C14.6537 37.0855 16.3428 37.4728 18.0483 37.7731C19.1715 37.9469 20.5119 37.9097 21.5483 38.3937C21.7403 38.509 21.8986 38.6727 22.0075 38.8684C22.2309 39.2035 22.417 39.6162 22.5691 39.8644C23.4565 41.3072 24.1484 42.8617 24.9551 44.3479C24.961 44.3588 24.9689 44.3684 24.9785 44.3761C24.9881 44.3839 24.9991 44.3897 25.0109 44.3931C25.0228 44.3966 25.0352 44.3977 25.0474 44.3963C25.0597 44.3949 25.0715 44.3912 25.0823 44.3852C25.0962 44.3725 25.1057 44.3558 25.1096 44.3374C25.1135 44.3191 25.1116 44.3 25.104 44.2828Z" fill="black"/>
<path fill-rule="evenodd" clip-rule="evenodd" d="M13.0304 31.7352C11.9755 30.2055 11.8855 28.2446 11.8234 26.4605C11.8079 26.0447 11.8607 25.5638 11.87 25.0921C11.9042 24.6226 11.8232 24.1519 11.6342 23.7207C11.5592 23.572 11.4474 23.4449 11.3095 23.3515C11.1715 23.2581 11.012 23.2015 10.8461 23.187C10.3693 23.1579 9.89327 23.2542 9.46532 23.4663C9.44313 23.4771 9.42592 23.4959 9.41726 23.519C9.40859 23.5421 9.40914 23.5677 9.41878 23.5904C9.4295 23.6126 9.44859 23.6296 9.47185 23.6378C9.49512 23.6459 9.52067 23.6445 9.54289 23.6338C9.87606 23.4732 10.2378 23.3804 10.6071 23.3608C10.7783 23.3408 10.9515 23.3724 11.1046 23.4514C11.2577 23.5305 11.3838 23.6534 11.4666 23.8045C11.6429 24.2085 11.7175 24.6495 11.6838 25.089C11.6838 25.5638 11.6218 26.0478 11.6373 26.4667C11.7024 28.3004 11.8048 30.2986 12.8784 31.8562C12.8846 31.8677 12.8932 31.8778 12.9036 31.8857C12.914 31.8937 12.9259 31.8994 12.9387 31.9024C12.9514 31.9054 12.9646 31.9057 12.9775 31.9033C12.9903 31.9009 13.0025 31.8958 13.0133 31.8883C13.024 31.8808 13.0331 31.8712 13.0398 31.86C13.0466 31.8488 13.0509 31.8363 13.0526 31.8233C13.0542 31.8104 13.053 31.7972 13.0492 31.7847C13.0454 31.7722 13.039 31.7606 13.0304 31.7507V31.7352Z" fill="black"/>
<path fill-rule="evenodd" clip-rule="evenodd" d="M13.5119 31.8065C14.0456 30.4568 15.3736 29.3956 16.2455 28.2693C16.4068 28.0614 16.6954 27.7853 16.9063 27.4936C17.0556 27.3159 17.1552 27.1018 17.1949 26.8731C17.1921 26.64 17.1197 26.4131 16.987 26.2215C16.7337 25.7726 16.4076 25.3689 16.0221 25.0269C16.0126 25.0182 16.0015 25.0116 15.9894 25.0074C15.9772 25.0032 15.9643 25.0015 15.9516 25.0026C15.9388 25.0036 15.9263 25.0072 15.915 25.0133C15.9037 25.0193 15.8937 25.0277 15.8858 25.0378C15.8779 25.0479 15.8721 25.0595 15.8688 25.0719C15.8656 25.0843 15.865 25.0973 15.867 25.11C15.869 25.1226 15.8736 25.1348 15.8806 25.1456C15.8875 25.1564 15.8966 25.1656 15.9072 25.1728C16.2795 25.4983 16.5942 25.8844 16.8381 26.3146C16.9524 26.4718 17.0163 26.6601 17.0212 26.8545C16.9847 27.051 16.8982 27.2349 16.7698 27.3881C16.5588 27.6767 16.2734 27.9529 16.1089 28.1576C15.2153 29.2995 13.8904 30.3761 13.3537 31.7414C13.3444 31.764 13.3444 31.7894 13.3536 31.812C13.3629 31.8347 13.3808 31.8528 13.4033 31.8624C13.4251 31.8684 13.4484 31.866 13.4685 31.8557C13.4887 31.8453 13.5041 31.8278 13.5119 31.8065Z" fill="black"/>
<path fill-rule="evenodd" clip-rule="evenodd" d="M15.4939 30.8974C15.2394 31.0397 15.0056 31.2161 14.7989 31.4218C14.0884 32.1758 14.2528 33.0321 14.833 33.814C15.5477 34.7205 16.3662 35.5401 17.2718 36.2559C17.6845 36.6034 18.2027 37.1371 18.7177 37.3233C19.2328 37.5095 19.9992 37.435 20.5794 37.4133C22.348 37.3543 23.8777 36.9944 25.1746 35.7347C25.1854 35.7269 25.1945 35.7169 25.2011 35.7054C25.2077 35.6938 25.2118 35.681 25.2131 35.6677C25.2143 35.6544 25.2127 35.6411 25.2083 35.6285C25.204 35.6159 25.197 35.6044 25.1878 35.5948C25.1786 35.5851 25.1674 35.5776 25.1551 35.5726C25.1427 35.5676 25.1294 35.5654 25.1161 35.566C25.1028 35.5666 25.0898 35.5701 25.0779 35.5762C25.0661 35.5822 25.0557 35.5908 25.0474 35.6012C23.7846 36.8268 22.2952 37.1526 20.5732 37.2302C20.0085 37.2488 19.3166 37.3388 18.7736 37.1464C18.2306 36.9541 17.7838 36.4483 17.3866 36.1132C16.4919 35.4062 15.6828 34.5971 14.9758 33.7023C14.4545 32.998 14.2869 32.2285 14.9292 31.549C15.1238 31.3554 15.3441 31.1894 15.5839 31.0557C15.6023 31.0417 15.6148 31.0215 15.6191 30.9989C15.6234 30.9763 15.6192 30.9528 15.6072 30.9332C15.5952 30.9135 15.5764 30.8989 15.5543 30.8923C15.5323 30.8857 15.5085 30.8875 15.4877 30.8974H15.4939Z" fill="black"/>
<path fill-rule="evenodd" clip-rule="evenodd" d="M22.1347 31.7259C21.2135 32.0215 20.3359 32.4389 19.5253 32.967C19.5054 32.9808 19.4917 33.0018 19.4871 33.0256C19.4824 33.0493 19.4872 33.0739 19.5004 33.0942C19.5144 33.1148 19.5357 33.1292 19.56 33.1344C19.5843 33.1396 19.6096 33.1352 19.6308 33.1221C20.4249 32.5943 21.2871 32.1768 22.1937 31.881C22.2167 31.8726 22.2356 31.8557 22.2465 31.8338C22.2575 31.8118 22.2596 31.7866 22.2526 31.7631C22.2409 31.7436 22.2225 31.729 22.2007 31.7221C22.179 31.7152 22.1555 31.7166 22.1347 31.7259Z" fill="black"/>
<path fill-rule="evenodd" clip-rule="evenodd" d="M9.87241 12.8485C9.84304 12.8784 9.82101 12.9147 9.80808 12.9545C9.79516 12.9944 9.79169 13.0367 9.79795 13.0781C9.81082 13.1607 9.84999 13.2368 9.90965 13.2953C9.94422 13.3315 9.98272 13.3638 10.0244 13.3915C10.0896 13.4318 10.1579 13.4629 10.2199 13.497L10.5985 13.7173L10.6326 13.7359H10.6512C10.6512 13.7359 10.6512 13.7359 10.6512 13.7173L10.4992 13.6304L10.2447 13.4846C10.1827 13.4504 10.1144 13.4194 10.0524 13.3791C10.0109 13.3547 9.97234 13.3255 9.93757 13.2922C9.88037 13.2386 9.84224 13.1678 9.82897 13.0905C9.82343 13.052 9.8267 13.0127 9.83853 12.9756C9.85035 12.9386 9.87042 12.9046 9.89723 12.8764L9.87241 12.8485Z" fill="black"/>
<path fill-rule="evenodd" clip-rule="evenodd" d="M22.8261 21.0771L22.9781 20.9778C23.0991 20.9033 23.217 20.8226 23.338 20.7513C23.459 20.6799 23.549 20.6303 23.6483 20.5775C23.6565 20.5792 23.6649 20.5792 23.6731 20.5775H23.6576H23.6297C23.5228 20.6301 23.4192 20.6892 23.3194 20.7544C23.1984 20.8288 23.0774 20.9095 22.9626 20.9871L22.8105 21.0926C22.8105 21.0926 22.8199 21.0802 22.8261 21.0771Z" fill="black"/>
<path fill-rule="evenodd" clip-rule="evenodd" d="M24.1759 20.3169L24.2224 20.2828C24.2787 20.2397 24.3378 20.2003 24.3993 20.1649C24.4892 20.1121 24.5792 20.0563 24.6661 19.9973L24.9764 19.7894C24.9981 19.7708 25.026 19.7584 25.0446 19.7398C25.0446 19.7398 25.0633 19.7212 25.0446 19.7398C25.0446 19.7398 25.0446 19.7398 25.0446 19.7212C25.0446 19.7025 25.0446 19.7212 25.026 19.7212C25.0074 19.7212 25.026 19.7212 25.026 19.7212L24.9422 19.7739C24.8212 19.8546 24.7033 19.9415 24.5792 20.019C24.5141 20.0625 24.4489 20.1059 24.3806 20.1431L24.2876 20.2021C24.2571 20.2218 24.2281 20.2436 24.2007 20.2673L24.1541 20.2983C24.1476 20.3045 24.1424 20.3119 24.1386 20.32C24.1374 20.3282 24.1374 20.3366 24.1386 20.3448C24.1509 20.3623 24.1643 20.3789 24.179 20.3945L24.2565 20.5062L24.3124 20.5775C24.4055 20.6759 24.4689 20.7985 24.4954 20.9313C24.5032 21.021 24.4802 21.1107 24.4303 21.1857C24.4861 21.1084 24.5125 21.0138 24.5048 20.9188C24.4794 20.7811 24.416 20.6532 24.3217 20.5496L24.2658 20.4782L24.1883 20.3665C24.1834 20.3502 24.1792 20.3336 24.1759 20.3169Z" fill="black"/>
<path fill-rule="evenodd" clip-rule="evenodd" d="M22.9034 18.1046H22.9376L23.0307 18.0674L23.0927 18.0364C23.1869 17.9847 23.278 17.9277 23.3658 17.8657C23.4464 17.8099 23.5271 17.754 23.5985 17.6951L23.6233 17.6733C23.6256 17.6702 23.6268 17.6664 23.6268 17.6625C23.6268 17.6586 23.6256 17.6548 23.6233 17.6516H23.6016L23.5705 17.6733C23.4806 17.7385 23.3875 17.813 23.2913 17.8781C23.2215 17.9276 23.149 17.9732 23.0741 18.0146L23.0151 18.0426L22.9221 18.0798H22.8817C22.8778 18.0813 22.8743 18.0838 22.8715 18.0871C22.8688 18.0903 22.867 18.0942 22.8662 18.0984C22.8695 18.1209 22.8758 18.1428 22.8848 18.1636C22.9058 18.2111 22.9307 18.2567 22.9593 18.3001L23.161 18.6507C23.3223 18.9362 23.4712 19.2247 23.645 19.5102L23.7505 19.6901C23.7877 19.7522 23.8281 19.8111 23.8653 19.8701L23.7629 19.687L23.5147 19.262C23.3999 19.0572 23.2882 18.8524 23.1703 18.6414L22.9686 18.2877C22.9459 18.2516 22.9252 18.2143 22.9065 18.176C22.9026 18.1524 22.9015 18.1284 22.9034 18.1046Z" fill="black"/>
<path fill-rule="evenodd" clip-rule="evenodd" d="M22.625 17.6796C22.5205 17.539 22.4252 17.3918 22.3395 17.239C22.2061 17.0094 22.0882 16.7705 21.9641 16.5409L21.8027 16.2523C21.7926 16.234 21.7812 16.2164 21.7686 16.1996C21.7686 16.1996 21.7531 16.1747 21.7686 16.1685C21.7841 16.1623 21.7872 16.1437 21.809 16.1313C21.8307 16.1189 21.9238 16.063 21.9455 16.0475C22.0572 15.97 22.1596 15.8831 22.2713 15.8086C22.3085 15.7807 22.3488 15.759 22.3861 15.7341H22.4047C22.4047 15.7341 22.4047 15.7341 22.4047 15.7186H22.3861C22.344 15.7405 22.3035 15.7654 22.2651 15.7931C22.1565 15.8676 22.051 15.9575 21.9548 16.032C21.9331 16.032 21.8648 16.0817 21.8183 16.1158C21.7717 16.1499 21.7686 16.1561 21.7655 16.1747C21.7624 16.1934 21.7655 16.1903 21.7655 16.2027C21.7788 16.2272 21.7933 16.251 21.809 16.274L21.9703 16.5626C22.0975 16.7922 22.2185 17.028 22.3519 17.2576C22.4394 17.411 22.5357 17.5592 22.6405 17.7013C22.6405 17.7013 22.6281 17.6827 22.625 17.6796Z" fill="black"/>
<path fill-rule="evenodd" clip-rule="evenodd" d="M21.3462 18.238C21.2924 18.2155 21.2405 18.1885 21.1911 18.1574C21.1428 18.1248 21.0971 18.0885 21.0546 18.0488C21.0143 18.0147 20.9769 17.9773 20.9429 17.9371L20.8529 17.8068C20.8028 17.7214 20.7714 17.6263 20.7607 17.5279C20.75 17.4295 20.7603 17.33 20.7908 17.2358C20.8763 16.9814 21.0323 16.7565 21.2407 16.5874L21.3028 16.5346C21.3028 16.5346 21.3028 16.5346 21.3028 16.5191H21.2873C21.2643 16.5339 21.2425 16.5505 21.2221 16.5687C21.0085 16.7434 20.8501 16.9762 20.766 17.2389C20.7357 17.3367 20.7264 17.4397 20.7387 17.5413C20.751 17.6429 20.7846 17.7408 20.8374 17.8285C20.8656 17.8739 20.8967 17.9174 20.9305 17.9588C20.9656 18.0001 21.004 18.0385 21.0453 18.0736C21.0883 18.1141 21.135 18.1505 21.1849 18.1822C21.2342 18.2162 21.2873 18.2443 21.3431 18.266C21.3431 18.266 21.3524 18.2411 21.3462 18.238Z" fill="black"/>
<path fill-rule="evenodd" clip-rule="evenodd" d="M22.9037 15.4921C22.9262 15.4706 22.9512 15.4518 22.9781 15.4363C23.0306 15.4077 23.0844 15.3818 23.1395 15.3587L23.639 15.1167L23.85 15.0112C23.9082 14.9849 23.9616 14.9492 24.0083 14.9057C24.031 14.8844 24.0481 14.8577 24.0579 14.8281C24.0597 14.8147 24.0597 14.8012 24.0579 14.7878C24.0579 14.7878 24.0579 14.8126 24.0579 14.8219C24.046 14.846 24.0303 14.868 24.0114 14.8871C23.9667 14.9286 23.9153 14.9621 23.8593 14.9864L23.6514 15.0919C23.487 15.1725 23.3194 15.247 23.1581 15.3277C23.0921 15.3559 23.0279 15.388 22.9657 15.4238C22.9362 15.4401 22.9124 15.465 22.8975 15.4952C22.8975 15.4952 22.8975 15.4952 22.8975 15.4952C22.8975 15.4952 22.8975 15.4952 22.8975 15.52C22.8975 15.5449 22.9595 15.6038 22.9657 15.6193C23.0185 15.7 23.0712 15.7807 23.1271 15.8613L23.2357 16.0227L23.5242 16.4354C23.6173 16.5688 23.7073 16.7053 23.7973 16.8387L23.9152 17.0094H23.9307C23.8904 16.9535 23.8531 16.8946 23.8128 16.8356L23.546 16.4323L23.4032 16.2213C23.3567 16.153 23.307 16.0847 23.2605 16.0134L23.1519 15.8551C23.096 15.7745 23.0433 15.6938 22.9906 15.61C22.9635 15.5754 22.9386 15.5391 22.9161 15.5014L22.9037 15.4921Z" fill="black"/>
<path fill-rule="evenodd" clip-rule="evenodd" d="M21.4336 15.7031C21.4347 15.6959 21.4347 15.6886 21.4336 15.6814C21.3968 15.639 21.3626 15.5945 21.3312 15.5479C21.2537 15.4424 21.1823 15.3339 21.1047 15.2377C21.0986 15.2266 21.0913 15.2162 21.083 15.2066L21.0458 15.1601C21.0458 15.1601 21.0458 15.1601 21.0303 15.1601L21.0644 15.2097L21.0861 15.2408C21.1606 15.3494 21.232 15.4611 21.3095 15.551C21.342 15.5976 21.3772 15.6421 21.415 15.6845L21.4367 15.7C21.4367 15.7 21.4398 15.7062 21.4336 15.7031Z" fill="black"/>
<path fill-rule="evenodd" clip-rule="evenodd" d="M22.6031 15.0019L22.4914 14.8374C22.4697 14.8002 22.4449 14.763 22.42 14.7257C22.3301 14.5861 22.2463 14.4434 22.1594 14.3038C22.1561 14.3018 22.1524 14.3008 22.1486 14.3008C22.1447 14.3008 22.141 14.3018 22.1377 14.3038V14.3255C22.2215 14.4651 22.3052 14.6109 22.3983 14.7506C22.4203 14.7886 22.4452 14.825 22.4728 14.8592C22.51 14.915 22.5504 14.9677 22.5907 15.0205H22.6062L22.6031 15.0019Z" fill="black"/>
<path fill-rule="evenodd" clip-rule="evenodd" d="M22.0874 5.54461C22.0857 5.57147 22.0857 5.59842 22.0874 5.62528C22.1216 5.8673 22.165 6.10931 22.1991 6.35133C22.1991 6.37926 22.1991 6.40718 22.1991 6.432C22.1991 6.432 22.1991 6.45682 22.1991 6.432C22.1991 6.432 22.1991 6.41339 22.1991 6.40408C22.1991 6.3234 22.1774 6.24273 22.165 6.16206C22.1371 5.97279 22.1029 5.78662 22.0781 5.59735C22.0798 5.57878 22.0798 5.56008 22.0781 5.5415L22.0874 5.54461Z" fill="black"/>
<path fill-rule="evenodd" clip-rule="evenodd" d="M21.5048 4.75647C21.4693 4.9461 21.5094 5.14211 21.6165 5.30256C21.6748 5.37877 21.7475 5.44269 21.8306 5.49062C21.9137 5.53855 22.0054 5.56954 22.1006 5.58181C22.0067 5.57219 21.9158 5.54284 21.8341 5.49568C21.7523 5.44853 21.6814 5.38463 21.6261 5.30818C21.5707 5.23173 21.5321 5.14444 21.5128 5.05204C21.4935 4.95963 21.494 4.8642 21.5141 4.77198L21.5048 4.75647Z" fill="black"/>
<path fill-rule="evenodd" clip-rule="evenodd" d="M22.3046 6.66465C22.3208 6.70435 22.3312 6.74613 22.3356 6.78876C22.3356 6.89116 22.3356 7.00906 22.3573 7.09904C22.3573 7.01527 22.3573 6.89426 22.3356 6.78876C22.3287 6.74428 22.3173 6.70061 22.3015 6.65845H22.2829H22.1712H21.7461H22.1805H22.2922L22.3046 6.66465Z" fill="black"/>
<path fill-rule="evenodd" clip-rule="evenodd" d="M22.888 6.6337C22.8902 6.64914 22.8902 6.6648 22.888 6.68024C22.888 6.71437 22.888 6.7485 22.888 6.77022C22.888 6.85089 22.9097 6.93467 22.9222 7.01534V7.12083C22.9222 7.07119 22.9222 7.02465 22.9066 6.97811C22.8911 6.93156 22.9066 6.83848 22.8818 6.76712C22.857 6.69575 22.8818 6.69886 22.8818 6.66472C22.8806 6.65008 22.8752 6.63609 22.8663 6.62439H22.7887H22.5126C22.5126 6.62439 22.5126 6.62439 22.4971 6.62439H22.7918H22.8694L22.888 6.6337Z" fill="black"/>
<path fill-rule="evenodd" clip-rule="evenodd" d="M23.0402 5.44529H23.0836C23.1509 5.45025 23.2164 5.46842 23.2766 5.49877C23.3368 5.52912 23.3903 5.57105 23.4343 5.62215C23.4611 5.66487 23.477 5.71346 23.4808 5.76374C23.4846 5.81402 23.4761 5.86447 23.456 5.91071C23.447 5.93607 23.4366 5.96092 23.425 5.98518C23.4123 6.01004 23.3978 6.0339 23.3815 6.05654C23.3999 6.03364 23.4155 6.00865 23.4281 5.98208C23.4426 5.95771 23.454 5.93166 23.4622 5.90451C23.4886 5.84447 23.4954 5.77759 23.4815 5.71348C23.4675 5.64936 23.4336 5.59132 23.3846 5.54769C23.2948 5.47761 23.1875 5.4336 23.0743 5.42047H23.0371L23.0402 5.44529Z" fill="black"/>
<path fill-rule="evenodd" clip-rule="evenodd" d="M22.6498 4.13283C22.6498 4.07698 22.6312 4.02423 22.625 3.96838L22.6436 4.0956C22.6422 4.11004 22.6422 4.12459 22.6436 4.13904C22.6436 4.13904 22.6529 4.13283 22.6498 4.13283Z" fill="black"/>
<path fill-rule="evenodd" clip-rule="evenodd" d="M21.9574 4.30968C21.9574 4.30968 21.9574 4.30969 21.9574 4.29107C21.9574 4.23832 21.9419 4.18247 21.9326 4.12972V4.06146C21.9326 4.06146 21.9326 4.1018 21.9326 4.12352C21.9326 4.14524 21.9326 4.18557 21.9326 4.2166C21.9326 4.24763 21.9326 4.27866 21.9481 4.30968C21.9481 4.30968 21.9574 4.31279 21.9574 4.30968Z" fill="black"/>
<path fill-rule="evenodd" clip-rule="evenodd" d="M11.4297 15.0143C11.5228 14.9212 11.619 14.8312 11.7182 14.7412C11.8175 14.6512 11.8517 14.6264 11.9199 14.5706L12.0378 14.4713C12.063 14.4504 12.0912 14.4337 12.1216 14.4216C12.1339 14.4187 12.1466 14.4187 12.1588 14.4216L12.255 14.4527C12.3049 14.4647 12.3558 14.4719 12.4071 14.4744C12.4567 14.4775 12.5064 14.4775 12.556 14.4744C12.7654 14.4735 12.9739 14.4464 13.1766 14.3937C13.2649 14.3727 13.3511 14.3436 13.4341 14.3068L13.5396 14.251L13.5768 14.2262C13.6041 14.2061 13.63 14.1844 13.6544 14.161C13.7344 14.0985 13.8045 14.0242 13.8623 13.9407L13.8809 13.9128L13.8623 13.9376C13.8091 14.0135 13.7453 14.0814 13.673 14.1393L13.6513 14.1579L13.5613 14.2106C13.4776 14.2621 13.3893 14.3057 13.2976 14.341L13.1579 14.3844C12.9665 14.4339 12.7693 14.4579 12.5715 14.4558H12.4226C12.3734 14.4533 12.3245 14.4461 12.2768 14.434C12.2581 14.434 12.2147 14.4123 12.1806 14.4061C12.1646 14.4002 12.1469 14.4002 12.1309 14.4061C12.1054 14.4148 12.0813 14.4274 12.0596 14.4434C12.0099 14.4775 11.9603 14.5271 11.9199 14.5582C11.8331 14.6295 11.7493 14.7009 11.6686 14.7754C11.5879 14.8498 11.5104 14.9274 11.4297 15.0081V15.0143Z" fill="black"/>
<path fill-rule="evenodd" clip-rule="evenodd" d="M13.7102 12.7833V12.7647C13.7514 12.6934 13.8003 12.6268 13.856 12.5661C13.946 12.4606 14.0515 12.3645 14.1446 12.2559C14.2377 12.1473 14.337 12.0262 14.4394 11.9177C14.4825 11.8708 14.5281 11.8263 14.5759 11.7842V11.7625C14.5759 11.7625 14.5759 11.7625 14.5573 11.7625C14.507 11.804 14.4602 11.8497 14.4176 11.899C14.3183 12.0076 14.2253 12.1286 14.1229 12.2341C14.0205 12.3396 13.9243 12.4296 13.8343 12.5444C13.7784 12.6083 13.7296 12.678 13.6885 12.7523V12.7709C13.6885 12.7709 13.7102 12.7864 13.7102 12.7833Z" fill="black"/>
<path fill-rule="evenodd" clip-rule="evenodd" d="M13.6479 11.2506L13.6231 11.2723L13.4152 11.4864C13.2321 11.6695 13.046 11.8463 12.866 12.0294C12.8071 12.0883 12.7481 12.1473 12.6954 12.2093L12.6768 12.2311H12.6923L12.714 12.2124L12.7605 12.1628C12.9591 11.9518 13.1732 11.7532 13.3811 11.5422C13.47 11.4554 13.5569 11.3654 13.6417 11.2723L13.6665 11.2413C13.6665 11.2413 13.651 11.2475 13.6479 11.2506Z" fill="black"/>
<path fill-rule="evenodd" clip-rule="evenodd" d="M12.3295 12.6345L12.2271 12.74C12.1465 12.8206 12.072 12.9044 11.9944 12.9913C11.8486 13.1526 11.7028 13.3016 11.56 13.4846L11.5321 13.5188L11.5166 13.5436H11.5383L11.56 13.525L11.588 13.4908C11.7338 13.3295 11.8734 13.1588 12.0193 12.9944L12.2489 12.7431L12.3481 12.6376L12.3295 12.6345Z" fill="black"/>
<path fill-rule="evenodd" clip-rule="evenodd" d="M14.8184 11.8991C14.9177 11.9666 15.0313 12.0102 15.1504 12.0263C15.1841 12.0308 15.2184 12.0259 15.2496 12.0123C15.2808 11.9986 15.3076 11.9766 15.3272 11.9487C15.3363 11.9353 15.3436 11.9207 15.3489 11.9053V11.8898C15.3433 11.9038 15.3348 11.9164 15.3241 11.927C15.3072 11.9509 15.2841 11.9698 15.2574 11.9818C15.2306 11.9938 15.2012 11.9985 15.1721 11.9953C15.0615 11.9782 14.9558 11.938 14.8618 11.8774L14.8277 11.8836L14.8184 11.8991Z" fill="black"/>
<path fill-rule="evenodd" clip-rule="evenodd" d="M12.1995 11.6291C12.2017 11.5537 12.2254 11.4806 12.2677 11.4181C12.3079 11.3552 12.3607 11.3013 12.4229 11.2599C12.6206 11.1441 12.8492 11.0921 13.0775 11.111C13.0804 11.1122 13.0835 11.1127 13.0866 11.1125C13.0896 11.1122 13.0926 11.1112 13.0952 11.1095C13.0978 11.1078 13.0999 11.1055 13.1014 11.1028C13.1028 11.1 13.1036 11.097 13.1036 11.0939C13.1036 11.0908 13.1028 11.0878 13.1014 11.085C13.0999 11.0823 13.0978 11.08 13.0952 11.0783C13.0926 11.0766 13.0896 11.0756 13.0866 11.0754C13.0835 11.0751 13.0804 11.0756 13.0775 11.0768C12.8421 11.0577 12.6065 11.113 12.4042 11.2351C12.3383 11.2788 12.2823 11.3359 12.2398 11.4026C12.2007 11.4718 12.1794 11.5497 12.1777 11.6291H12.1964H12.1995Z" fill="black"/>
<path fill-rule="evenodd" clip-rule="evenodd" d="M13.6793 11.2692C13.7134 11.2909 13.7507 11.3064 13.7848 11.3251L14.0764 11.4492H14.1013V11.4243L14.0671 11.4088C13.943 11.3561 13.8189 11.3064 13.6979 11.2444H13.6669H13.6514C13.6514 11.2444 13.6762 11.2661 13.6793 11.2692Z" fill="black"/>
<path fill-rule="evenodd" clip-rule="evenodd" d="M12.3696 12.6345L12.5899 12.7462L12.7885 12.8423H12.8195H12.8413V12.8206H12.8257L12.7544 12.7865L12.4317 12.6345H12.3945H12.3789C12.3789 12.6345 12.3665 12.6345 12.3696 12.6345Z" fill="black"/>
<path fill-rule="evenodd" clip-rule="evenodd" d="M14.0484 10.8876L14.067 10.8628C14.1508 10.7573 14.2501 10.6642 14.3401 10.5525C14.3667 10.5251 14.3915 10.4961 14.4146 10.4656C14.4415 10.4327 14.4654 10.3974 14.4859 10.3601C14.4871 10.3508 14.4871 10.3415 14.4859 10.3322C14.4872 10.3219 14.4872 10.3115 14.4859 10.3012C14.4981 10.2596 14.4981 10.2155 14.4859 10.174C14.4985 10.2112 14.4985 10.2515 14.4859 10.2888C14.4859 10.3074 14.4704 10.3198 14.4642 10.3353C14.4422 10.3724 14.4173 10.4077 14.3897 10.4408C14.2967 10.5618 14.185 10.6642 14.0795 10.779C14.0582 10.8014 14.0385 10.8252 14.0205 10.8504L14.0484 10.8876Z" fill="black"/>
<path fill-rule="evenodd" clip-rule="evenodd" d="M7.25069 18.8183C8.12257 19.3085 8.94482 19.8918 9.83532 20.3511C9.84605 20.3569 9.85784 20.3604 9.87 20.3616C9.88216 20.3627 9.89442 20.3613 9.90603 20.3575C9.91764 20.3538 9.92836 20.3477 9.93754 20.3396C9.94672 20.3316 9.95417 20.3217 9.95943 20.3107C9.97056 20.2892 9.9729 20.2643 9.96595 20.2411C9.959 20.218 9.94331 20.1984 9.92219 20.1866C9.0348 19.7274 8.21256 19.1472 7.34378 18.6569C7.32238 18.6446 7.29696 18.6413 7.2731 18.6477C7.24924 18.6541 7.22891 18.6697 7.21657 18.6911C7.20422 18.7125 7.20088 18.7379 7.20728 18.7617C7.21368 18.7856 7.2293 18.8059 7.25069 18.8183Z" fill="#FE772A"/>
<path fill-rule="evenodd" clip-rule="evenodd" d="M8.66547 18.2443C8.56618 19.1565 8.42967 20.078 8.28384 20.9871C8.28106 21.0112 8.2875 21.0355 8.30189 21.0551C8.31628 21.0747 8.33754 21.0881 8.3614 21.0926C8.38602 21.0962 8.41109 21.0902 8.43134 21.0757C8.45159 21.0613 8.46544 21.0395 8.46999 21.015C8.61583 20.1028 8.74925 19.1813 8.85164 18.2629C8.85343 18.2383 8.84574 18.214 8.83016 18.195C8.81457 18.1759 8.79228 18.1636 8.76787 18.1605C8.75563 18.1592 8.74327 18.1604 8.73148 18.1639C8.71969 18.1674 8.70872 18.1732 8.6992 18.181C8.68968 18.1888 8.68179 18.1984 8.676 18.2093C8.67021 18.2201 8.66663 18.232 8.66547 18.2443Z" fill="#FE772A"/>
<path fill-rule="evenodd" clip-rule="evenodd" d="M8.06951 18.5546C8.34255 19.2186 8.58457 19.8919 8.86382 20.5528C8.86855 20.5643 8.87555 20.5748 8.88441 20.5835C8.89326 20.5923 8.90379 20.5992 8.91537 20.6038C8.92695 20.6085 8.93933 20.6107 8.9518 20.6105C8.96426 20.6102 8.97655 20.6075 8.98793 20.6024C8.99908 20.5977 9.00918 20.5908 9.0176 20.5821C9.02602 20.5734 9.0326 20.5631 9.03694 20.5518C9.04129 20.5405 9.0433 20.5284 9.04288 20.5163C9.04246 20.5042 9.0396 20.4924 9.03447 20.4814C8.75832 19.8205 8.5132 19.1472 8.24016 18.4832C8.23057 18.4607 8.21249 18.4428 8.18984 18.4335C8.16719 18.4242 8.1418 18.4243 8.11916 18.4336C8.10773 18.438 8.09732 18.4446 8.08857 18.4532C8.07982 18.4618 8.07291 18.472 8.06826 18.4834C8.06361 18.4947 8.06132 18.5068 8.06154 18.5191C8.06175 18.5313 8.06447 18.5434 8.06951 18.5546Z" fill="#FE772A"/>
<path fill-rule="evenodd" clip-rule="evenodd" d="M7.89547 20.1183C8.3764 19.7181 8.97213 19.4792 9.48409 19.1192C9.50345 19.105 9.51653 19.0837 9.52058 19.06C9.52463 19.0363 9.51934 19.0119 9.50582 18.992C9.49895 18.9818 9.49012 18.973 9.47982 18.9662C9.46953 18.9593 9.45798 18.9546 9.44585 18.9523C9.43372 18.95 9.42125 18.9501 9.40918 18.9527C9.3971 18.9553 9.38565 18.9602 9.37549 18.9672C8.86043 19.3302 8.26159 19.5878 7.77446 19.9756C7.7581 19.9934 7.74902 20.0166 7.74902 20.0408C7.74902 20.0649 7.7581 20.0882 7.77446 20.1059C7.78978 20.1222 7.81044 20.1324 7.83265 20.1346C7.85487 20.1369 7.87717 20.1311 7.89547 20.1183Z" fill="#FE772A"/>
<path fill-rule="evenodd" clip-rule="evenodd" d="M17.4989 7.39386C17.2987 7.13545 17.1549 6.83788 17.0769 6.52041C16.9988 6.20293 16.9883 5.87261 17.0459 5.55081C17.1887 4.83096 17.6479 4.25074 17.8961 3.57123C18.2653 2.55352 18.0543 1.24104 17.1545 0.564637C17.1448 0.557303 17.1336 0.551966 17.1218 0.548933C17.1099 0.545899 17.0976 0.545227 17.0855 0.546956C17.0734 0.548685 17.0618 0.55278 17.0513 0.559008C17.0407 0.565236 17.0315 0.573475 17.0242 0.583254C17.0102 0.603273 17.0043 0.627888 17.0077 0.652096C17.0112 0.676303 17.0237 0.698286 17.0428 0.713572C17.8775 1.33413 18.0668 2.57524 17.7192 3.50608C17.471 4.19179 17.0087 4.78132 16.866 5.51358C16.8011 5.85857 16.8102 6.21339 16.8925 6.55462C16.9749 6.89585 17.1287 7.21574 17.3438 7.49315C17.3504 7.50376 17.3591 7.51289 17.3693 7.51996C17.3796 7.52704 17.3912 7.53189 17.4035 7.53423C17.4158 7.53656 17.4284 7.53632 17.4405 7.53352C17.4527 7.53073 17.4641 7.52543 17.4741 7.51797C17.4931 7.50423 17.5063 7.4838 17.5109 7.46079C17.5155 7.43777 17.5112 7.41387 17.4989 7.39386Z" fill="#1A6DDB"/>
<defs>
<linearGradient id="paint0_linear_17267_2240" x1="18.2203" y1="35.3455" x2="21.9485" y2="31.8732" gradientUnits="userSpaceOnUse">
<stop stop-color="#D98F35"/>
<stop offset="1" stop-color="#E3A151"/>
</linearGradient>
</defs>
</svg>
