<svg width="178" height="171" viewBox="0 0 178 171" fill="none" xmlns="http://www.w3.org/2000/svg">
<path d="M177.896 161.981V17.4665C177.896 8.27745 170.446 0.828247 161.257 0.828247L16.7423 0.828247C7.55328 0.828247 0.104095 8.27745 0.104095 17.4665V161.981C0.104095 171.17 7.55328 178.62 16.7423 178.62H161.257C170.446 178.62 177.896 171.17 177.896 161.981Z" fill="#CD52D7"/>
<path d="M100.877 100.98C115.732 100.98 127.774 84.5592 127.774 64.303C127.774 44.0468 115.732 27.626 100.877 27.626C86.0226 27.626 73.9805 44.0468 73.9805 64.303C73.9805 84.5592 86.0226 100.98 100.877 100.98Z" fill="white"/>
<mask id="mask0_17323_3041" style="mask-type:luminance" maskUnits="userSpaceOnUse" x="73" y="27" width="55" height="74">
<path d="M100.879 100.98C115.734 100.98 127.776 84.5588 127.776 64.3026C127.776 44.0465 115.734 27.6256 100.879 27.6256C86.0246 27.6256 73.9824 44.0465 73.9824 64.3026C73.9824 84.5588 86.0246 100.98 100.879 100.98Z" fill="white"/>
</mask>
<g mask="url(#mask0_17323_3041)">
<path d="M85.5419 84.9414C93.346 84.9414 99.6726 75.7011 99.6726 64.3026C99.6726 52.904 93.346 43.6637 85.5419 43.6637C77.7377 43.6637 71.4111 52.904 71.4111 64.3026C71.4111 75.7011 77.7377 84.9414 85.5419 84.9414Z" fill="#231F20" stroke="#231F20" stroke-width="4.28637" stroke-miterlimit="10"/>
</g>
<path d="M100.877 100.98C115.732 100.98 127.774 84.5592 127.774 64.303C127.774 44.0468 115.732 27.626 100.877 27.626C86.0226 27.626 73.9805 44.0468 73.9805 64.303C73.9805 84.5592 86.0226 100.98 100.877 100.98Z" stroke="#231F20" stroke-width="4.28637" stroke-miterlimit="10"/>
<path d="M58.3071 100.979C73.1619 100.979 85.2041 84.5579 85.2041 64.3018C85.2041 44.0456 73.1619 27.6248 58.3071 27.6248C43.4523 27.6248 31.4102 44.0456 31.4102 64.3018C31.4102 84.5579 43.4523 100.979 58.3071 100.979Z" fill="white"/>
<mask id="mask1_17323_3041" style="mask-type:luminance" maskUnits="userSpaceOnUse" x="31" y="27" width="55" height="74">
<path d="M58.3081 100.978C73.1629 100.978 85.205 84.5572 85.205 64.301C85.205 44.0449 73.1629 27.624 58.3081 27.624C43.4533 27.624 31.4111 44.0449 31.4111 64.301C31.4111 84.5572 43.4533 100.978 58.3081 100.978Z" fill="white"/>
</mask>
<g mask="url(#mask1_17323_3041)">
<path d="M42.9764 84.9409C50.7806 84.9409 57.1072 75.7006 57.1072 64.3021C57.1072 52.9035 50.7806 43.6632 42.9764 43.6632C35.1722 43.6632 28.8457 52.9035 28.8457 64.3021C28.8457 75.7006 35.1722 84.9409 42.9764 84.9409Z" fill="#231F20" stroke="#231F20" stroke-width="4.28637" stroke-miterlimit="10"/>
</g>
<path d="M58.3071 100.979C73.1619 100.979 85.2041 84.5579 85.2041 64.3018C85.2041 44.0456 73.1619 27.6248 58.3071 27.6248C43.4523 27.6248 31.4102 44.0456 31.4102 64.3018C31.4102 84.5579 43.4523 100.979 58.3071 100.979Z" stroke="#231F20" stroke-width="4.28637" stroke-miterlimit="10"/>
<path d="M117.467 131.255C117.467 131.255 91.1633 112.207 68.5056 135.362" stroke="#231F20" stroke-width="5.00076" stroke-miterlimit="10" stroke-linecap="round"/>
</svg>
