<svg width="250" height="243" viewBox="0 0 250 243" fill="none" xmlns="http://www.w3.org/2000/svg">
<path d="M162.814 232.665L38.176 201.163L29.6175 72.8995L148.965 25.1244L231.278 123.867L162.814 232.665Z" fill="#5CCAE7"/>
<path d="M139.368 152.003C153.85 155.597 169.562 142.501 174.462 122.753C179.362 103.005 171.594 84.0831 157.112 80.4898C142.63 76.8966 126.918 89.9925 122.018 109.74C117.118 129.488 124.886 148.41 139.368 152.003Z" fill="white"/>
<mask id="mask0_16913_49623" style="mask-type:luminance" maskUnits="userSpaceOnUse" x="120" y="79" width="56" height="74">
<path d="M139.367 152.003C153.85 155.596 169.562 142.5 174.462 122.752C179.361 103.004 171.593 84.0826 157.111 80.4893C142.629 76.8961 126.917 89.992 122.017 109.74C117.118 129.488 124.885 148.41 139.367 152.003Z" fill="white"/>
</mask>
<g mask="url(#mask0_16913_49623)">
<path d="M162.96 130.19C170.568 132.078 178.971 124.6 181.729 113.487C184.486 102.375 180.553 91.8361 172.945 89.9483C165.337 88.0605 156.934 95.5386 154.176 106.651C151.419 117.764 155.352 128.303 162.96 130.19Z" fill="#231F20" stroke="#231F20" stroke-width="4.30553" stroke-miterlimit="10"/>
</g>
<path d="M139.368 152.003C153.85 155.597 169.562 142.501 174.462 122.753C179.362 103.005 171.594 84.0831 157.112 80.4898C142.63 76.8966 126.918 89.9925 122.018 109.74C117.118 129.488 124.886 148.41 139.368 152.003Z" stroke="#231F20" stroke-width="4.30553" stroke-miterlimit="10"/>
<path d="M97.8663 141.706C112.348 145.299 128.06 132.203 132.96 112.455C137.86 92.7075 130.092 73.7857 115.61 70.1925C101.128 66.5992 85.416 79.6951 80.5161 99.443C75.6163 119.191 83.3843 138.113 97.8663 141.706Z" fill="white"/>
<mask id="mask1_16913_49623" style="mask-type:luminance" maskUnits="userSpaceOnUse" x="79" y="69" width="56" height="74">
<path d="M97.8673 141.706C112.349 145.299 128.061 132.203 132.961 112.455C137.861 92.7074 130.093 73.7856 115.611 70.1924C101.129 66.5991 85.4169 79.695 80.5171 99.4429C75.6173 119.191 83.3852 138.113 97.8673 141.706Z" fill="white"/>
</mask>
<g mask="url(#mask1_16913_49623)">
<path d="M120.222 116.983C127.83 118.871 136.233 111.393 138.99 100.281C141.748 89.168 137.815 78.6292 130.207 76.7414C122.598 74.8536 114.195 82.3317 111.438 93.4443C108.681 104.557 112.613 115.096 120.222 116.983Z" fill="#231F20" stroke="#231F20" stroke-width="4.30553" stroke-miterlimit="10"/>
</g>
<path d="M97.8663 141.706C112.348 145.299 128.06 132.203 132.96 112.455C137.86 92.7075 130.092 73.7857 115.61 70.1925C101.128 66.5992 85.416 79.6951 80.5161 99.443C75.6163 119.191 83.3843 138.113 97.8663 141.706Z" stroke="#231F20" stroke-width="4.30553" stroke-miterlimit="10"/>
<path d="M81.03 168.795L142.995 184.17" stroke="#231F20" stroke-width="4.30553" stroke-miterlimit="10" stroke-linecap="round"/>
</svg>
