<svg width="128" height="123" viewBox="0 0 128 123" fill="none" xmlns="http://www.w3.org/2000/svg">
<g clip-path="url(#clip0_17394_4029)">
<path d="M83.1933 97.3835L1.4626 122.772C-2.09557 123.869 -5.41295 120.552 -4.31607 116.994L21.0726 35.2628L83.1933 97.3835Z" fill="#8E34D5"/>
<path d="M85.7061 95.9331C91.6613 89.978 82.3449 71.0063 64.8973 53.5588C47.4498 36.1112 28.4781 26.7948 22.523 32.75C16.5678 38.7051 25.8843 57.6767 43.3318 75.1243C60.7794 92.5718 79.751 101.888 85.7061 95.9331Z" fill="#812FC1"/>
<path d="M71.4734 101.02L55.6623 105.943C52.1576 104.686 48.7065 103.187 45.3088 101.422C37.925 97.596 30.8354 92.5932 24.2274 86.5202C23.1573 85.5303 21.9801 84.4067 20.7227 83.1761C17.4856 79.9389 13.7669 75.819 10.0215 70.8964L13.2586 60.4092C19.1978 69.3447 25.6185 75.9795 30.1131 80.0995C42.7405 91.6835 56.6521 98.7196 71.4734 101.02Z" fill="#812FC1"/>
<path d="M45.0699 109.195L32.603 113.074C25.4599 109.302 18.6111 104.406 12.1904 98.5204C11.1202 97.5305 9.9431 96.4069 8.6857 95.1762C7.21428 93.7048 5.63585 92.0461 4.00391 90.2001L7.05376 80.3282C11.1202 85.3578 15.0262 89.2905 18.076 92.0996C26.5568 99.858 35.5726 105.583 45.0699 109.195Z" fill="#812FC1"/>
<path d="M22.4883 116.236L11.5463 119.634C7.64034 116.959 3.81465 113.909 0.176224 110.565C-0.439098 110.003 -1.08117 109.414 -1.75 108.745L1.16609 99.3284C2.93179 101.174 4.61724 102.78 6.0619 104.117C11.3323 108.959 16.8167 112.999 22.4883 116.236Z" fill="#CBB2EB"/>
<path d="M43.0413 45.6158L39.1621 41.7366C45.3153 35.5834 48.82 27.6912 49.5958 18.2473C50.1844 11.0775 48.9002 5.64663 48.8735 5.59313L54.1973 4.28223C54.2509 4.523 55.6955 10.4622 55.0802 18.4881C54.2509 29.2161 50.0774 38.5797 43.0413 45.6158Z" fill="#E35BAD"/>
<path d="M73.805 80.2625L69.9258 76.3833C77.4969 68.8122 88.2249 64.9865 100.933 65.361C110.376 65.6286 117.546 68.0898 117.841 68.1969L116.048 73.3602L116.931 70.7652L116.048 73.3602C115.968 73.3334 109.253 71.0594 100.612 70.8187C89.402 70.5244 80.3595 73.708 73.805 80.2625Z" fill="#FE7122"/>
<path d="M54.8613 40.0853C56.8411 36.7946 59.4629 35.9385 61.3623 35.2964C62.9675 34.7614 63.9574 34.4403 64.8937 32.8887C65.8301 31.337 65.6696 30.3204 65.3753 28.6349C65.0275 26.6552 64.5727 23.9531 66.5524 20.6625C68.5322 17.3719 71.154 16.5158 73.0534 15.8737C74.6586 15.3386 75.6485 15.0176 76.5849 13.4659C77.5212 11.9142 77.3607 10.8976 77.0664 9.21217C76.7186 7.23244 76.2638 4.53038 78.2435 1.23975L82.9253 4.04882C81.989 5.6005 82.1495 6.61712 82.4438 8.30257C82.7916 10.2823 83.2464 12.9844 81.2666 16.275C79.2869 19.5656 76.6651 20.4217 74.7656 21.0638C73.1604 21.5989 72.1706 21.9199 71.2342 23.4716C70.2979 25.0233 70.4584 26.0399 70.7527 27.7253C71.1005 29.705 71.5553 32.4071 69.5755 35.6977C67.5958 38.9884 64.974 39.8445 63.0745 40.4865C61.4693 41.0216 60.4795 41.3426 59.5431 42.8943L54.8613 40.0853Z" fill="#FE7122"/>
<path d="M77.4409 54.7694L74.7656 50.0074C78.2168 48.0544 80.9991 48.6162 83.0323 49.0443C84.798 49.3921 85.8414 49.6061 87.5536 48.6697C89.2391 47.7334 89.6136 46.7168 90.2289 45.0046C90.9245 43.0516 91.9144 40.403 95.3655 38.4501C98.8167 36.4971 101.599 37.0589 103.632 37.4602C105.398 37.808 106.441 38.022 108.153 37.0857C109.839 36.1493 110.213 35.1059 110.829 33.4205C111.524 31.4675 112.514 28.8189 115.965 26.866L118.641 31.628C116.955 32.5644 116.581 33.6077 115.965 35.2932C115.27 37.2462 114.28 39.8947 110.829 41.8477C107.378 43.8007 104.595 43.2389 102.562 42.8376C100.796 42.4898 99.753 42.2758 98.0408 43.2121C96.3554 44.1485 95.9808 45.1651 95.3655 46.8773C94.6699 48.8303 93.6801 51.4788 90.2289 53.4318C86.7778 55.3848 83.9954 54.823 81.9622 54.3949C80.1965 54.0204 79.1264 53.8063 77.4409 54.7694Z" fill="#E35BAD"/>
<path d="M112.141 55.1217C113.648 55.1217 114.87 53.9 114.87 52.3929C114.87 50.8858 113.648 49.6641 112.141 49.6641C110.634 49.6641 109.412 50.8858 109.412 52.3929C109.412 53.9 110.634 55.1217 112.141 55.1217Z" fill="#CBB2EB"/>
<path d="M99.9417 87.0575C101.449 87.0575 102.671 85.8357 102.671 84.3287C102.671 82.8216 101.449 81.5999 99.9417 81.5999C98.4346 81.5999 97.2129 82.8216 97.2129 84.3287C97.2129 85.8357 98.4346 87.0575 99.9417 87.0575Z" fill="#FFB992"/>
<path d="M125.117 63.8306C126.625 63.8306 127.846 62.6088 127.846 61.1017C127.846 59.5947 126.625 58.3729 125.117 58.3729C123.61 58.3729 122.389 59.5947 122.389 61.1017C122.389 62.6088 123.61 63.8306 125.117 63.8306Z" fill="#A684DA"/>
<path d="M102.832 26.0957C104.339 26.0957 105.561 24.874 105.561 23.3669C105.561 21.8598 104.339 20.6381 102.832 20.6381C101.325 20.6381 100.104 21.8598 100.104 23.3669C100.104 24.874 101.325 26.0957 102.832 26.0957Z" fill="#CBB2EB"/>
<path d="M62.5901 5.94188C64.0972 5.94188 65.319 4.72015 65.319 3.21307C65.319 1.70599 64.0972 0.484253 62.5901 0.484253C61.0831 0.484253 59.8613 1.70599 59.8613 3.21307C59.8613 4.72015 61.0831 5.94188 62.5901 5.94188Z" fill="#E35BAD"/>
<path d="M81.5628 29.567C83.0699 29.567 84.2916 28.3453 84.2916 26.8382C84.2916 25.3311 83.0699 24.1094 81.5628 24.1094C80.0557 24.1094 78.834 25.3311 78.834 26.8382C78.834 28.3453 80.0557 29.567 81.5628 29.567Z" fill="#FE7122"/>
<path d="M60.8265 63.4324C62.3336 63.4324 63.5553 62.2106 63.5553 60.7036C63.5553 59.1965 62.3336 57.9747 60.8265 57.9747C59.3194 57.9747 58.0977 59.1965 58.0977 60.7036C58.0977 62.2106 59.3194 63.4324 60.8265 63.4324Z" fill="#A684DA"/>
<path d="M32.2015 18.9082C33.7086 18.9082 34.9303 17.6865 34.9303 16.1794C34.9303 14.6723 33.7086 13.4506 32.2015 13.4506C30.6944 13.4506 29.4727 14.6723 29.4727 16.1794C29.4727 17.6865 30.6944 18.9082 32.2015 18.9082Z" fill="#F7C9E3"/>
</g>
<defs>
<clipPath id="clip0_17394_4029">
<rect width="132.374" height="122.502" fill="white" transform="translate(-4.53125 0.474731)"/>
</clipPath>
</defs>
</svg>
