<svg width="45" height="49" viewBox="0 0 45 49" fill="none" xmlns="http://www.w3.org/2000/svg">
<path fill-rule="evenodd" clip-rule="evenodd" d="M8.76395 37.492C8.64113 38.4714 8.56676 39.4564 8.54102 40.4433L9.01929 40.4763C9.08043 39.5096 9.08047 38.5283 9.23512 37.5726L8.76395 37.492Z" fill="#F56C2C"/>
<path fill-rule="evenodd" clip-rule="evenodd" d="M7.76758 38.7882C8.6739 38.8541 9.56589 39.2679 10.4291 39.4986L10.5513 39.0299C9.64496 38.7882 8.73508 38.3708 7.79998 38.2975L7.76758 38.7882Z" fill="#F56C2C"/>
<path fill-rule="evenodd" clip-rule="evenodd" d="M8.00488 37.7776C8.5012 38.5429 8.98672 39.3265 9.51901 40.0698L9.90737 39.7842C9.37868 39.0519 8.89677 38.2683 8.40405 37.5067L8.00488 37.7776Z" fill="#F56C2C"/>
<path fill-rule="evenodd" clip-rule="evenodd" d="M35.2949 6.90594C35.0539 8.10698 34.6799 9.26773 34.4102 10.4614L34.8777 10.5713C35.1475 9.37391 35.5215 8.2095 35.7625 7.00115L35.2949 6.90594Z" fill="#F56C2C"/>
<path fill-rule="evenodd" clip-rule="evenodd" d="M33.6768 7.96412C34.7557 8.48408 35.8562 9.0846 36.9927 9.5057L37.1546 9.04799C36.0325 8.63055 34.9571 8.03369 33.8782 7.52106L33.6768 7.96412Z" fill="#F56C2C"/>
<path fill-rule="evenodd" clip-rule="evenodd" d="M34.3564 7.21714C34.7377 8.11792 35.029 9.04798 35.4893 9.91214L35.9101 9.6778C35.4569 8.82463 35.1908 7.9092 34.7952 7.02307L34.3564 7.21714Z" fill="#F56C2C"/>
<path fill-rule="evenodd" clip-rule="evenodd" d="M13.5899 45.9981C13.2662 45.5477 13.169 45.1193 13.3272 44.7934C13.4855 44.4675 13.8776 44.2771 14.4638 44.2588C14.9571 44.2992 15.4465 44.3787 15.9276 44.4968C16.5587 44.6416 17.2049 44.7068 17.8517 44.6908C18.0813 44.6953 18.3088 44.6457 18.5166 44.546C18.7243 44.4463 18.9066 44.2991 19.0494 44.116C19.2335 43.8106 19.3013 43.4471 19.24 43.0943C19.2084 42.8446 19.1505 42.5991 19.0674 42.362L18.6142 42.5231C18.6844 42.7223 18.7338 42.9285 18.7616 43.1383C18.8091 43.3758 18.7708 43.6229 18.6537 43.834C18.5502 43.9555 18.4211 44.0515 18.276 44.1149C18.1309 44.1783 17.9736 44.2075 17.8158 44.2002C17.0888 44.203 16.3641 44.1157 15.6579 43.9402C15.2635 43.8455 14.8613 43.7879 14.4566 43.7681C13.6402 43.7901 13.1187 44.1343 12.9029 44.5737C12.6871 45.0131 12.7555 45.6465 13.2122 46.2837L13.5899 45.9981Z" fill="#279FF2"/>
<path fill-rule="evenodd" clip-rule="evenodd" d="M9.38189 9.35189C10.7809 9.32259 11.7916 8.13987 11.3313 6.74843C11.1047 6.05637 10.6515 5.40092 10.4105 4.73816C10.2785 4.44183 10.237 4.11193 10.2916 3.79131C10.3461 3.47069 10.494 3.17417 10.7162 2.94028C10.9211 2.69075 11.1778 2.49064 11.4679 2.3544C11.788 2.20989 12.1296 2.12078 12.4785 2.09076L12.4174 1.60742C12.0172 1.64338 11.6257 1.74734 11.2593 1.915C10.9104 2.07928 10.6012 2.31923 10.353 2.61805C10.0706 2.916 9.88228 3.29324 9.81241 3.70114C9.74253 4.10905 9.7943 4.52891 9.96097 4.9066C10.2019 5.5657 10.6515 6.21748 10.8781 6.90222C11.2378 7.96044 10.4357 8.83926 9.37109 8.86489L9.38189 9.35189Z" fill="#279FF2"/>
<path fill-rule="evenodd" clip-rule="evenodd" d="M42.6572 23.8669C43.0457 24.4234 43.47 24.9251 43.8189 25.4524C44.0975 25.8155 44.3003 26.2328 44.4147 26.6786C44.5292 27.1244 44.5528 27.5893 44.4843 28.0448C44.3476 28.8797 43.7254 29.5095 43.3334 30.1576C43.0973 30.5003 42.9614 30.904 42.9414 31.322C42.9581 31.8322 43.1652 32.3167 43.5204 32.6769L43.8801 32.3546C43.6036 32.0838 43.4389 31.7158 43.4197 31.3257C43.4384 30.998 43.5495 30.6826 43.7398 30.4176C44.1642 29.7219 44.8188 29.0225 44.9555 28.1254C45.034 27.6115 45.0087 27.0867 44.8813 26.583C44.754 26.0794 44.5271 25.6074 44.2146 25.196C43.8549 24.6688 43.4377 24.1634 43.0457 23.6032L42.6572 23.8669Z" fill="#279FF2"/>
<path fill-rule="evenodd" clip-rule="evenodd" d="M41.9923 29.202C42.1038 30.0112 41.7693 30.7875 41.6147 31.5308C41.4349 32.384 41.4565 33.2042 42.352 33.9915L42.6649 33.6253C42.3809 33.3925 42.1731 33.0774 42.069 32.7216C41.9649 32.3659 41.9696 31.9863 42.0823 31.6333C42.2513 30.8351 42.5857 30.0002 42.467 29.1324L41.9923 29.202Z" fill="#279FF2"/>
<path fill-rule="evenodd" clip-rule="evenodd" d="M28.4941 43.1932C28.7063 44.4199 29.1163 45.5953 29.4005 46.8036L29.868 46.6901C29.5838 45.4928 29.1738 44.3247 28.9688 43.109L28.4941 43.1932Z" fill="#FFBA16"/>
<path fill-rule="evenodd" clip-rule="evenodd" d="M29.623 42.2375C29.7921 43.0651 30.1374 43.8523 30.3424 44.6762L30.8099 44.5627C30.6157 43.7425 30.274 42.9626 30.0906 42.1387L29.623 42.2375Z" fill="#FFBA16"/>
<path fill-rule="evenodd" clip-rule="evenodd" d="M17.1763 3.32847C16.7555 2.22997 16.4569 1.10583 16.1189 0L15.6621 0.15379C16.0218 1.2706 16.3059 2.40573 16.7411 3.50423L17.1763 3.32847Z" fill="#FFBA16"/>
<path fill-rule="evenodd" clip-rule="evenodd" d="M18.0492 2.69499C17.9773 2.12743 17.8945 1.55987 17.837 0.988647L17.3623 1.03991C17.4198 1.6148 17.5025 2.18602 17.5744 2.75724L18.0492 2.69499Z" fill="#FFBA16"/>
<path fill-rule="evenodd" clip-rule="evenodd" d="M5.72467 29.1873C4.21773 29.7366 2.75397 30.381 1.25781 30.9596L1.42684 31.4136C2.9194 30.8387 4.37955 30.1943 5.8865 29.6487L5.72467 29.1873Z" fill="#FFBA16"/>
<path fill-rule="evenodd" clip-rule="evenodd" d="M37.1114 17.2941C38.0177 16.9499 38.9097 16.6021 39.8268 16.2652L39.6614 15.8075C38.7551 16.1407 37.8631 16.4922 36.9424 16.8364L37.1114 17.2941Z" fill="#FFBA16"/>
<path fill-rule="evenodd" clip-rule="evenodd" d="M37.5859 18.4219C38.7368 18.2755 39.9488 18.2389 41.0709 17.9166L40.9414 17.4479C39.8445 17.7628 38.654 17.7958 37.5283 17.9386L37.5859 18.4219Z" fill="#FFBA16"/>
<path fill-rule="evenodd" clip-rule="evenodd" d="M6.11276 30.0002C5.58047 30.6849 4.82513 31.0328 4.24609 31.6553L4.60575 31.9921C5.19198 31.355 5.95805 30.9962 6.50112 30.3004L6.11276 30.0002Z" fill="#FFBA16"/>
<path fill-rule="evenodd" clip-rule="evenodd" d="M19.7513 4.12676C19.664 4.03753 19.5603 3.96672 19.4461 3.9184C19.332 3.87009 19.2095 3.84521 19.0859 3.84521C18.9622 3.84521 18.8398 3.87009 18.7256 3.9184C18.6114 3.96672 18.5078 4.03753 18.4206 4.12676L1.81895 20.9705C1.72954 21.0595 1.65891 21.1661 1.61129 21.2839C1.56368 21.4016 1.54017 21.528 1.5421 21.6553V22.1825C1.54337 22.4348 1.64138 22.6766 1.81535 22.8563C4.10634 25.1961 20.1181 41.5639 23.5887 45.1157C23.7652 45.2939 24.0037 45.3939 24.2523 45.3939C24.5009 45.3939 24.7394 45.2939 24.9159 45.1157L41.5139 28.2939C41.6555 28.1535 41.7478 27.9695 41.7764 27.7703L41.8375 27.4041C41.866 27.2273 41.8528 27.0461 41.799 26.8755C41.7453 26.7049 41.6525 26.5497 41.5283 26.4228L19.7513 4.12676Z" fill="black"/>
<path fill-rule="evenodd" clip-rule="evenodd" d="M19.5716 4.61738C19.4315 4.47708 19.243 4.39821 19.0465 4.39767C18.9489 4.39611 18.852 4.41478 18.7618 4.45255C18.6715 4.49032 18.5897 4.5464 18.5214 4.61738L2.76143 20.5897C2.69151 20.6585 2.636 20.741 2.59829 20.8322C2.56058 20.9235 2.54143 21.0216 2.54201 21.1206C2.54141 21.2204 2.56021 21.3193 2.59724 21.4116C2.63427 21.504 2.68884 21.588 2.75783 21.6589L23.7076 43.0944C23.7752 43.1656 23.8563 43.2221 23.9459 43.2604C24.0355 43.2988 24.1318 43.3183 24.2291 43.3177C24.4256 43.3172 24.6141 43.2383 24.7542 43.098L40.5286 27.1111C40.6664 26.9685 40.7439 26.7766 40.7444 26.5765C40.7459 26.4772 40.7276 26.3785 40.6905 26.2866C40.6534 26.1947 40.5983 26.1114 40.5286 26.0419L19.5716 4.61738Z" fill="white"/>
<path d="M14.3636 13.0423L5.52148 22.0038L11.0986 27.7077L19.9407 18.7462L14.3636 13.0423Z" fill="#F0F0F4"/>
<path d="M27.8754 26.2096L26.9502 27.1473L30.2437 30.5157L31.1689 29.578L27.8754 26.2096Z" fill="#17171F"/>
<path d="M30.4682 25.385L29.543 26.3227L31.9509 28.7854L32.8761 27.8477L30.4682 25.385Z" fill="#17171F"/>
<path d="M29.7992 21.2547L28.874 22.1924L33.6442 27.0711L34.5695 26.1334L29.7992 21.2547Z" fill="#17171F"/>
<path d="M28.189 25.9419L27.2637 26.8796L30.5571 30.248L31.4824 29.3103L28.189 25.9419Z" fill="white"/>
<path d="M28.1636 25.9198L27.2383 26.8576L30.5318 30.226L31.457 29.2882L28.1636 25.9198Z" fill="#279FF2"/>
<path d="M30.7798 25.1198L29.8545 26.0576L32.2624 28.5203L33.1877 27.5825L30.7798 25.1198Z" fill="white"/>
<path d="M30.7573 25.0952L29.832 26.033L32.24 28.4957L33.1653 27.558L30.7573 25.0952Z" fill="#279FF2"/>
<path d="M30.1118 20.9869L29.1865 21.9247L33.9567 26.8034L34.882 25.8656L30.1118 20.9869Z" fill="white"/>
<path d="M30.0883 20.9612L29.1631 21.8989L33.9333 26.7777L34.8585 25.8399L30.0883 20.9612Z" fill="#279FF2"/>
<path d="M10.875 26.1554L11.0728 21.7943L14.1083 21.5746V15.7416" stroke="#F56C2C" stroke-width="0.0952038" stroke-linejoin="round"/>
<path d="M12.457 17.4296L14.1079 15.7416L15.7622 17.4296" stroke="#F56C2C" stroke-width="0.0952038" stroke-miterlimit="10"/>
<path fill-rule="evenodd" clip-rule="evenodd" d="M13.5935 30.0588C14.3668 29.8134 14.7445 29.2532 15.061 28.6234C15.3343 28.0778 15.5537 27.4773 16.0356 27.0525C16.4412 26.7358 16.9045 26.5043 17.3987 26.3715C17.9479 26.2183 18.4673 25.9706 18.9344 25.6391C19.4114 25.2266 19.7756 24.6956 19.9918 24.0975C20.1809 23.561 20.4476 23.0563 20.7831 22.5999C21.1398 22.2294 21.5685 21.9389 22.0419 21.7467C22.5699 21.5337 23.0569 21.2276 23.4805 20.8423C23.9051 20.3672 24.2413 19.8176 24.473 19.2202C24.6798 18.6729 24.9439 18.1499 25.2607 17.6603L24.8795 17.3747C24.5426 17.8935 24.2605 18.447 24.0379 19.0261C23.8311 19.5658 23.5288 20.0623 23.1459 20.4908C22.7647 20.8345 22.3279 21.1083 21.8548 21.3C21.324 21.5207 20.8439 21.8511 20.4449 22.2704C20.0778 22.7644 19.7846 23.311 19.5746 23.8925C19.3929 24.4163 19.0791 24.8823 18.6647 25.2437C18.2384 25.5368 17.7667 25.7547 17.2693 25.8881C16.7168 26.0385 16.1996 26.2999 15.7479 26.6571C15.2157 27.1221 14.9567 27.7739 14.669 28.3744C14.566 28.649 14.4065 28.8979 14.2012 29.1044C13.9958 29.3109 13.7494 29.4703 13.4785 29.5718L13.5935 30.0588Z" fill="#010101"/>
<path fill-rule="evenodd" clip-rule="evenodd" d="M15.367 31.9116C16.1942 31.7505 16.6977 31.1133 17.1185 30.3664C17.4781 29.7073 17.7946 28.9603 18.2765 28.4916C18.7397 28.1139 19.261 27.817 19.8195 27.6128C20.4305 27.3857 20.9951 27.0455 21.4847 26.6095C21.8262 26.1986 22.0874 25.7251 22.2543 25.2144C22.4048 24.7545 22.6364 24.3264 22.9377 23.9511C23.2536 23.6272 23.6425 23.3871 24.0706 23.2517C24.5662 23.0907 25.0132 22.8033 25.369 22.4168L25.0093 22.0909C24.7041 22.4235 24.3183 22.6684 23.8908 22.8013C23.3958 22.9628 22.9474 23.2457 22.5852 23.6252C22.2428 24.0422 21.9794 24.5201 21.8084 25.0349C21.6633 25.4883 21.4351 25.9095 21.1359 26.2762C20.6896 26.6675 20.1762 26.9716 19.6216 27.1734C19.0127 27.402 18.4443 27.7297 17.9385 28.1437C17.4314 28.6417 17.0969 29.4253 16.7013 30.1283C16.3417 30.7472 15.9568 31.3037 15.2627 31.4392L15.367 31.9116Z" fill="#010101"/>
<path fill-rule="evenodd" clip-rule="evenodd" d="M17.8486 34.3246C18.4725 33.8464 18.9573 33.2048 19.2513 32.4681C19.557 31.831 19.8051 31.1866 20.2079 30.7838C20.5604 30.5089 20.979 30.3356 21.4199 30.2821C22.0055 30.1848 22.5463 29.9031 22.9664 29.4765C23.344 29.049 23.5936 28.5205 23.6857 27.9533C23.7859 27.4168 24.0357 26.9211 24.4051 26.5252L24.0454 26.1993C23.618 26.6535 23.3273 27.2227 23.2075 27.8398C23.1346 28.3284 22.9218 28.7843 22.596 29.1507C22.2396 29.5057 21.7832 29.7387 21.2905 29.8171C20.7637 29.8854 20.2658 30.1009 19.8519 30.4396C19.4131 30.8753 19.1326 31.5637 18.7981 32.2704C18.5429 32.9284 18.1164 33.5031 17.5645 33.9328L17.8486 34.3246Z" fill="#010101"/>
<path fill-rule="evenodd" clip-rule="evenodd" d="M31.1883 5.03479L26.0381 21.7504L26.0705 24.2513L27.4515 22.2008L32.6017 5.48518L31.1883 5.03479Z" fill="#636471"/>
<path fill-rule="evenodd" clip-rule="evenodd" d="M15.8701 13.1344C16.4434 12.8976 16.9212 12.4704 17.226 11.9224C17.4891 11.4341 17.8066 10.9783 18.172 10.5639C18.4019 10.3549 18.6711 10.1955 18.9632 10.0952C19.294 9.98157 19.6151 9.84074 19.9234 9.67412C20.2654 9.42478 20.5511 9.10393 20.7615 8.73306L20.373 8.45844C20.2006 8.77207 19.9653 9.04529 19.6825 9.26035C19.3951 9.41209 19.0969 9.54183 18.7906 9.64848C18.4404 9.76965 18.1184 9.96283 17.8446 10.216C17.4543 10.6552 17.114 11.138 16.8304 11.6551C16.5823 12.1159 16.188 12.4773 15.7119 12.6804L15.8701 13.1344Z" fill="#010101"/>
<path fill-rule="evenodd" clip-rule="evenodd" d="M17.2875 14.3135C17.8339 14.0934 18.2862 13.6835 18.5643 13.1564C18.7958 12.6938 19.0861 12.2642 19.4275 11.8785C19.66 11.6659 19.928 11.4972 20.2187 11.3805C20.5394 11.2491 20.8506 11.0949 21.1502 10.9191C21.3921 10.7284 21.6054 10.5026 21.7832 10.2491L21.4235 9.93048C21.2749 10.15 21.0956 10.3461 20.8912 10.5127C20.6124 10.6782 20.3215 10.8214 20.0209 10.9411C19.6813 11.081 19.3684 11.2806 19.0966 11.5306C18.7279 11.9448 18.4125 12.4049 18.1579 12.9001C17.9361 13.3363 17.5688 13.6778 17.1221 13.8631L17.2875 14.3135Z" fill="#010101"/>
</svg>
