<svg width="118" height="125" viewBox="0 0 118 125" fill="none" xmlns="http://www.w3.org/2000/svg">
<g opacity="0.1">
<path d="M173.76 55.5821L125.932 -41.7894C122.891 -47.9809 115.383 -50.5704 109.162 -47.5734L11.3256 -0.439712C5.10468 2.5573 2.52694 10.006 5.56809 16.1974L53.3959 113.569C56.4371 119.76 63.9455 122.35 70.1665 119.353L168.003 72.2192C174.224 69.2222 176.801 61.7735 173.76 55.5821Z" fill="#CD52D7"/>
<path d="M101.473 39.6132C111.522 34.7736 114.232 19.7866 107.526 6.13905C100.821 -7.50854 87.2383 -14.6487 77.1894 -9.80906C67.1404 -4.96937 64.4301 10.0175 71.1358 23.6651C77.8414 37.3127 91.4237 44.4529 101.473 39.6132Z" fill="white"/>
<mask id="mask0_16934_51646" style="mask-type:luminance" maskUnits="userSpaceOnUse" x="67" y="-12" width="45" height="54">
<path d="M101.475 39.6139C111.522 34.7751 114.231 19.7882 107.524 6.1397C100.818 -7.50882 87.2354 -14.6505 77.1875 -9.81177C67.1396 -4.97301 64.431 10.0139 71.1377 23.6624C77.8443 37.3109 91.4266 44.4527 101.475 39.6139Z" fill="white"/>
</mask>
<g mask="url(#mask0_16934_51646)">
<path d="M85.7653 33.826C91.0436 31.284 92.2635 22.9978 88.4899 15.3181C84.7164 7.6385 77.3785 3.47358 72.1002 6.01554C66.8219 8.5575 65.602 16.8437 69.3755 24.5234C73.1491 32.203 80.487 36.368 85.7653 33.826Z" fill="#231F20" stroke="#231F20" stroke-width="3.20649" stroke-miterlimit="10"/>
</g>
<path d="M101.473 39.6132C111.522 34.7736 114.232 19.7866 107.526 6.13905C100.821 -7.50854 87.2383 -14.6487 77.1894 -9.80906C67.1404 -4.96937 64.4301 10.0175 71.1358 23.6651C77.8414 37.3127 91.4237 44.4529 101.473 39.6132Z" stroke="#231F20" stroke-width="3.20649" stroke-miterlimit="10"/>
<path d="M72.6074 53.5439C82.6563 48.7042 85.3666 33.7173 78.661 20.0697C71.9554 6.42213 58.3731 -0.718086 48.3241 4.12161C38.2752 8.9613 35.5649 23.9482 42.2705 37.5958C48.9762 51.2434 62.5584 58.3836 72.6074 53.5439Z" fill="white"/>
<mask id="mask1_16934_51646" style="mask-type:luminance" maskUnits="userSpaceOnUse" x="38" y="2" width="45" height="54">
<path d="M72.6083 53.5457C82.6562 48.7069 85.3648 33.72 78.6581 20.0715C71.9515 6.42294 58.3692 -0.718775 48.3213 4.11999C38.2734 8.95875 35.5648 23.9457 42.2714 37.5942C48.9781 51.2427 62.5604 58.3844 72.6083 53.5457Z" fill="white"/>
</mask>
<g mask="url(#mask1_16934_51646)">
<path d="M56.903 47.7558C62.1813 45.2139 63.4012 36.9276 59.6276 29.248C55.8541 21.5683 48.5162 17.4034 43.2379 19.9453C37.9596 22.4873 36.7397 30.7736 40.5132 38.4532C44.2868 46.1329 51.6247 50.2978 56.903 47.7558Z" fill="#231F20" stroke="#231F20" stroke-width="3.20649" stroke-miterlimit="10"/>
</g>
<path d="M72.6074 53.5439C82.6563 48.7042 85.3666 33.7173 78.661 20.0697C71.9554 6.42213 58.3731 -0.718086 48.3241 4.12161C38.2752 8.9613 35.5649 23.9482 42.2705 37.5958C48.9762 51.2434 62.5584 58.3836 72.6074 53.5439Z" stroke="#231F20" stroke-width="3.20649" stroke-miterlimit="10"/>
<path d="M90.4761 71.5986C90.4761 71.5986 114.527 76.2195 122.546 53.2887" stroke="#231F20" stroke-width="3.74091" stroke-miterlimit="10" stroke-linecap="round"/>
</g>
</svg>
