<svg width="179" height="179" viewBox="0 0 179 179" fill="none" xmlns="http://www.w3.org/2000/svg">
<path d="M179 162.249V16.7514C179 7.49984 171.5 0 162.249 0L16.7513 0C7.49983 0 0 7.49984 0 16.7514V162.249C0 171.5 7.49983 179 16.7513 179H162.249C171.5 179 179 171.5 179 162.249Z" fill="#CD52D7"/>
<path d="M101.458 100.831C116.413 100.831 128.538 84.2987 128.538 63.9049C128.538 43.511 116.413 26.9785 101.458 26.9785C86.502 26.9785 74.3779 43.511 74.3779 63.9049C74.3779 84.2987 86.502 100.831 101.458 100.831Z" fill="white"/>
<mask id="mask0_16913_49604" style="mask-type:luminance" maskUnits="userSpaceOnUse" x="74" y="26" width="55" height="75">
<path d="M101.459 100.831C116.414 100.831 128.539 84.2982 128.539 63.9044C128.539 43.5105 116.414 26.978 101.459 26.978C86.5029 26.978 74.3789 43.5105 74.3789 63.9044C74.3789 84.2982 86.5029 100.831 101.459 100.831Z" fill="white"/>
</mask>
<g mask="url(#mask0_16913_49604)">
<path d="M86.0168 84.6843C93.8741 84.6843 100.244 75.3812 100.244 63.9051C100.244 52.4291 93.8741 43.126 86.0168 43.126C78.1596 43.126 71.79 52.4291 71.79 63.9051C71.79 75.3812 78.1596 84.6843 86.0168 84.6843Z" fill="#231F20" stroke="#231F20" stroke-width="4.31551" stroke-miterlimit="10"/>
</g>
<path d="M101.458 100.831C116.413 100.831 128.538 84.2987 128.538 63.9049C128.538 43.511 116.413 26.9785 101.458 26.9785C86.502 26.9785 74.3779 43.511 74.3779 63.9049C74.3779 84.2987 86.502 100.831 101.458 100.831Z" stroke="#231F20" stroke-width="4.31551" stroke-miterlimit="10"/>
<path d="M74.3711 140.325C74.3711 140.325 105.227 151.143 120.432 122.287" stroke="#231F20" stroke-width="5.03476" stroke-miterlimit="10" stroke-linecap="round"/>
<path d="M58.5979 100.831C73.5536 100.831 85.6777 84.2987 85.6777 63.9049C85.6777 43.511 73.5536 26.9785 58.5979 26.9785C43.6421 26.9785 31.5181 43.511 31.5181 63.9049C31.5181 84.2987 43.6421 100.831 58.5979 100.831Z" fill="white"/>
<mask id="mask1_16913_49604" style="mask-type:luminance" maskUnits="userSpaceOnUse" x="31" y="26" width="55" height="75">
<path d="M58.5986 100.83C73.5544 100.83 85.6784 84.298 85.6784 63.9041C85.6784 43.5103 73.5544 26.9778 58.5986 26.9778C43.6428 26.9778 31.5188 43.5103 31.5188 63.9041C31.5188 84.298 43.6428 100.83 58.5986 100.83Z" fill="white"/>
</mask>
<g mask="url(#mask1_16913_49604)">
<path d="M43.1627 84.6843C51.0199 84.6843 57.3895 75.3812 57.3895 63.9051C57.3895 52.4291 51.0199 43.126 43.1627 43.126C35.3055 43.126 28.9359 52.4291 28.9359 63.9051C28.9359 75.3812 35.3055 84.6843 43.1627 84.6843Z" fill="#231F20" stroke="#231F20" stroke-width="4.31551" stroke-miterlimit="10"/>
</g>
<path d="M58.5979 100.831C73.5536 100.831 85.6777 84.2987 85.6777 63.9049C85.6777 43.511 73.5536 26.9785 58.5979 26.9785C43.6421 26.9785 31.5181 43.511 31.5181 63.9049C31.5181 84.2987 43.6421 100.831 58.5979 100.831Z" stroke="#231F20" stroke-width="4.31551" stroke-miterlimit="10"/>
</svg>
